<svg version="1.1" xmlns="http://www.w3.org/2000/svg" viewBox="0 0 574.5250222359366 354.907099733834" width="574.5250222359366" height="354.907099733834">
  <!-- svg-source:excalidraw -->
  
  <defs>
    <style class="style-fonts">
      @font-face {
        font-family: "Virgil";
        src: url("https://excalidraw.com/Virgil.woff2");
      }
      @font-face {
        font-family: "Cascadia";
        src: url("https://excalidraw.com/Cascadia.woff2");
      }
    </style>
  </defs>
  <g stroke-linecap="round"><g transform="translate(336.6366616935905 213.17453364834876) rotate(121.14273162473272 5.886916781514675 -0.29541459438542006)" fill-rule="evenodd"><path d="M0 0 L6.39 8.14 L9.31 10.32 L12.6 9.3 L14.79 6.82 L13.78 3.85 L7.55 -5.76 L3.02 -10.81 L0.64 -10.49 L-1.38 -9.22 L-3.01 -6.65 L-2.4 -3.99 L0 0" stroke="none" stroke-width="0" fill="#ffffff" fill-rule="evenodd"></path><path d="M0 0 C0.62 0.82, 2.14 3.18, 3.7 4.9 C5.25 6.62, 7.46 10, 9.31 10.32 C11.16 10.64, 14.42 8.45, 14.79 6.82 C15.17 5.18, 12.78 2.63, 11.57 0.53 C10.36 -1.56, 8.97 -3.87, 7.55 -5.76 C6.12 -7.65, 4.51 -10.23, 3.02 -10.81 C1.54 -11.39, -0.38 -9.91, -1.38 -9.22 C-2.39 -8.53, -2.84 -7.52, -3.01 -6.65 C-3.18 -5.78, -2.9 -5.09, -2.4 -3.99 C-1.89 -2.88, -0.4 -0.66, 0 0 M0 0 C0.62 0.82, 2.14 3.18, 3.7 4.9 C5.25 6.62, 7.46 10, 9.31 10.32 C11.16 10.64, 14.42 8.45, 14.79 6.82 C15.17 5.18, 12.78 2.63, 11.57 0.53 C10.36 -1.56, 8.97 -3.87, 7.55 -5.76 C6.12 -7.65, 4.51 -10.23, 3.02 -10.81 C1.54 -11.39, -0.38 -9.91, -1.38 -9.22 C-2.39 -8.53, -2.84 -7.52, -3.01 -6.65 C-3.18 -5.78, -2.9 -5.09, -2.4 -3.99 C-1.89 -2.88, -0.4 -0.66, 0 0" stroke="#000000" stroke-width="2" fill="none"></path></g></g><g stroke-linecap="round"><g transform="translate(351.85808760533627 325.2542280418543) rotate(61.296384782494115 7.231746396297538 -1.7153694815714289)" fill-rule="evenodd"><path d="M0 0 L6.61 6.95 L9.53 8.47 L12.66 7.69 L15.21 5.64 L16.45 2.87 L16.15 -0.61 L13.22 -5.1 L9.53 -9.14 L4.5 -11.92 L-0.01 -9.51 L-2.11 -5.03 L0 0" stroke="none" stroke-width="0" fill="#ffffff" fill-rule="evenodd"></path><path d="M0 0 C0.65 0.75, 2.33 3.09, 3.91 4.5 C5.5 5.91, 7.65 8.28, 9.53 8.47 C11.42 8.66, 14.11 7.15, 15.21 5.64 C16.31 4.13, 17.1 1.85, 16.15 -0.61 C15.21 -3.08, 11.48 -7.26, 9.53 -9.14 C7.59 -11.03, 6.09 -11.85, 4.5 -11.92 C2.91 -11.98, 1.09 -10.66, -0.01 -9.51 C-1.11 -8.36, -2.11 -6.62, -2.11 -5.03 C-2.11 -3.45, -0.35 -0.84, 0 0 M0 0 C0.65 0.75, 2.33 3.09, 3.91 4.5 C5.5 5.91, 7.65 8.28, 9.53 8.47 C11.42 8.66, 14.11 7.15, 15.21 5.64 C16.31 4.13, 17.1 1.85, 16.15 -0.61 C15.21 -3.08, 11.48 -7.26, 9.53 -9.14 C7.59 -11.03, 6.09 -11.85, 4.5 -11.92 C2.91 -11.98, 1.09 -10.66, -0.01 -9.51 C-1.11 -8.36, -2.11 -6.62, -2.11 -5.03 C-2.11 -3.45, -0.35 -0.84, 0 0" stroke="#000000" stroke-width="2" fill="none"></path></g></g><g stroke-linecap="round"><g transform="translate(361.606625820184 59.35971141847847) rotate(356.57434765220694 3.8345033141126272 -11.454512533120123)" fill-rule="evenodd"><path d="M0 0 L-4.66 -5.96 L-7.7 -12.82 L-7.31 -16.42 L-5.5 -19.57 L-1.76 -22.03 L2.76 -22.82 L7.26 -20.1 L11.18 -16.23 L15.39 -10.16 L0 0" stroke="none" stroke-width="0" fill="#bccfde" fill-rule="evenodd"></path><path d="M0 0 C-0.78 -0.99, -3.37 -3.82, -4.66 -5.96 C-5.94 -8.09, -7.56 -10.56, -7.7 -12.82 C-7.84 -15.09, -7.25 -17.9, -5.5 -19.57 C-3.76 -21.23, -0.02 -23.38, 2.76 -22.82 C5.54 -22.26, 9.16 -18.31, 11.18 -16.23 C13.2 -14.16, 14.45 -11.49, 14.88 -10.37 C15.3 -9.25, 16.2 -11.23, 13.72 -9.5 C11.24 -7.78, 2.29 -1.58, 0 0 M0 0 C-0.78 -0.99, -3.37 -3.82, -4.66 -5.96 C-5.94 -8.09, -7.56 -10.56, -7.7 -12.82 C-7.84 -15.09, -7.25 -17.9, -5.5 -19.57 C-3.76 -21.23, -0.02 -23.38, 2.76 -22.82 C5.54 -22.26, 9.16 -18.31, 11.18 -16.23 C13.2 -14.16, 14.45 -11.49, 14.88 -10.37 C15.3 -9.25, 16.2 -11.23, 13.72 -9.5 C11.24 -7.78, 2.29 -1.58, 0 0" stroke="#bccfde" stroke-width="2" fill="none"></path></g></g><g stroke-linecap="round"><g transform="translate(367.6566548061312 54.31780618364917) rotate(343.0962830115082 -2.6049399564556097 -4.359059988150989)"><path d="M0 0 C-0.41 -0.69, -1.59 -2.69, -2.45 -4.14 C-3.32 -5.59, -4.75 -7.96, -5.21 -8.72 M0 0 C-0.41 -0.69, -1.59 -2.69, -2.45 -4.14 C-3.32 -5.59, -4.75 -7.96, -5.21 -8.72" stroke="#000000" stroke-width="2" fill="none"></path></g></g><g stroke-linecap="round"><g transform="translate(361.64967257113204 59.33237878254397) rotate(356.57434765220694 3.7978172875899574 -11.454512533120123)"><path d="M0 0 C-0.78 -0.99, -3.37 -3.82, -4.66 -5.96 C-5.94 -8.09, -7.56 -10.56, -7.7 -12.82 C-7.84 -15.09, -7.25 -17.9, -5.5 -19.57 C-3.76 -21.23, -0.02 -23.38, 2.76 -22.82 C5.54 -22.26, 9.09 -18.38, 11.18 -16.23 C13.28 -14.09, 14.63 -11, 15.32 -9.96 M0 0 C-0.78 -0.99, -3.37 -3.82, -4.66 -5.96 C-5.94 -8.09, -7.56 -10.56, -7.7 -12.82 C-7.84 -15.09, -7.25 -17.9, -5.5 -19.57 C-3.76 -21.23, -0.02 -23.38, 2.76 -22.82 C5.54 -22.26, 9.09 -18.38, 11.18 -16.23 C13.28 -14.09, 14.63 -11, 15.32 -9.96" stroke="#000000" stroke-width="2" fill="none"></path></g></g><g stroke-linecap="round"><g transform="translate(367.63959614935425 53.33811292236294) rotate(343.0962830115082 0.252549741358413 -4.258421990469401)"><path d="M0 0 C-0.03 -0.86, -0.32 -3.72, -0.19 -5.14 C-0.07 -6.56, 0.58 -7.95, 0.73 -8.52 M0 0 C-0.03 -0.86, -0.32 -3.72, -0.19 -5.14 C-0.07 -6.56, 0.58 -7.95, 0.73 -8.52" stroke="#000000" stroke-width="2" fill="none"></path></g></g><g stroke-linecap="round"><g transform="translate(367.6834502562514 54.499324559245565) rotate(343.0962830115082 -2.6049399564556097 -4.359059988150989)"><path d="M0 0 C-0.41 -0.69, -1.59 -2.69, -2.45 -4.14 C-3.32 -5.59, -4.75 -7.96, -5.21 -8.72 M0 0 C-0.41 -0.69, -1.59 -2.69, -2.45 -4.14 C-3.32 -5.59, -4.75 -7.96, -5.21 -8.72" stroke="#000000" stroke-width="2" fill="none"></path></g></g><g stroke-linecap="round"><g transform="translate(367.6663915994749 53.519631297958426) rotate(343.0962830115082 0.252549741358413 -4.258421990469401)"><path d="M0 0 C-0.03 -0.86, -0.32 -3.72, -0.19 -5.14 C-0.07 -6.56, 0.58 -7.95, 0.73 -8.52 M0 0 C-0.03 -0.86, -0.32 -3.72, -0.19 -5.14 C-0.07 -6.56, 0.58 -7.95, 0.73 -8.52" stroke="#000000" stroke-width="2" fill="none"></path></g></g><g stroke-linecap="round"><g transform="translate(535.5188004546806 236.91841985824692) rotate(0 -81.38451555552967 -63.168243221131775)" fill-rule="evenodd"><path d="M0 0 L-2.93 30.17 L-5.19 40.54 L-11.98 56.96 L-22.31 70.91 L-37.32 82.64 L-55.77 91.68 L-77.21 97.78 L-100.48 100.52 L-125.36 99.26 L-137.66 97.28 L-148.62 94.51 L-166.76 87.68 L-174.19 82.63 L-180.29 75.38 L-184.92 66.05 L-188.2 54.98 L-190.35 41.65 L-191.59 25.57 L-191.54 4.82 L-183.91 -120.52 L-185.39 -155.53 L-183.54 -165.49 L-179.38 -174.16 L-173.6 -181.74 L-166.19 -188.7 L-146.28 -202.65 L-133.59 -209.73 L-119.65 -216.02 L-105.02 -220.8 L-89.04 -224.1 L-71.69 -226.23 L-54.46 -226.91 L-38.87 -225.89 L-24.92 -223.35 L-11.95 -219.35 L-0.42 -213.41 L9.17 -205.09 L17.17 -193.27 L23.67 -178.53 L27.86 -162.92 L28.93 -148.47 L27.74 -142.34 L25.16 -136.9 L9.09 -115.2 L5.62 -108.08 L3.17 -99.6 L0.71 -75.93 L0 0" stroke="none" stroke-width="0" fill="#bccfde" fill-rule="evenodd"></path><path d="M0 0 C-0.86 6.76, -1.47 28.72, -5.19 40.54 C-8.91 52.36, -13.88 62.38, -22.31 70.91 C-30.74 79.43, -42.75 86.75, -55.77 91.68 C-68.8 96.62, -85 100.05, -100.48 100.52 C-115.95 100.99, -135.32 98.7, -148.62 94.51 C-161.92 90.32, -173.13 86.87, -180.29 75.38 C-187.45 63.89, -190.45 49.07, -191.59 25.57 C-192.72 2.06, -188.37 -41.31, -187.09 -65.66 C-185.81 -90.01, -184.5 -103.88, -183.91 -120.52 C-183.32 -137.15, -187.99 -152.99, -183.54 -165.49 C-179.08 -177.99, -170.27 -186.31, -157.18 -195.53 C-144.09 -204.75, -124.74 -215.74, -105.02 -220.8 C-85.3 -225.87, -57.9 -228.51, -38.87 -225.89 C-19.83 -223.27, -2.13 -217.99, 9.17 -205.09 C20.47 -192.18, 29.93 -166.05, 28.93 -148.47 C27.93 -130.89, 7.99 -124.34, 3.17 -99.6 C-1.66 -74.85, 0.53 -16.6, 0 0 M0 0 C-0.86 6.76, -1.47 28.72, -5.19 40.54 C-8.91 52.36, -13.88 62.38, -22.31 70.91 C-30.74 79.43, -42.75 86.75, -55.77 91.68 C-68.8 96.62, -85 100.05, -100.48 100.52 C-115.95 100.99, -135.32 98.7, -148.62 94.51 C-161.92 90.32, -173.13 86.87, -180.29 75.38 C-187.45 63.89, -190.45 49.07, -191.59 25.57 C-192.72 2.06, -188.37 -41.31, -187.09 -65.66 C-185.81 -90.01, -184.5 -103.88, -183.91 -120.52 C-183.32 -137.15, -187.99 -152.99, -183.54 -165.49 C-179.08 -177.99, -170.27 -186.31, -157.18 -195.53 C-144.09 -204.75, -124.74 -215.74, -105.02 -220.8 C-85.3 -225.87, -57.9 -228.51, -38.87 -225.89 C-19.83 -223.27, -2.13 -217.99, 9.17 -205.09 C20.47 -192.18, 29.93 -166.05, 28.93 -148.47 C27.93 -130.89, 7.99 -124.34, 3.17 -99.6 C-1.66 -74.85, 0.53 -16.6, 0 0" stroke="#000000" stroke-width="2" fill="none"></path></g></g><g stroke-linecap="round"><g stroke-opacity="0.6" fill-opacity="0.6" transform="translate(425.77616459946375 334.62119429997847) rotate(0 -25.393971790254767 -54.169360966306726)" fill-rule="evenodd"><path d="M-0.5 -1.26 L-27.71 -0.08 L-41.42 -5.45 L-54.57 -11.41 L-63.53 -17.89 L-74.33 -27.24 L-77.6 -41.08 L-78.64 -64.69 L-76.88 -88.44 L-72.24 -95.54 L-58.78 -100.37 L-47.41 -105.96 L-34.53 -110.16 L-19.22 -108.9 L-11.29 -101.63 L0.58 -90.72 L11.42 -82.09 L19.63 -69.75 L25.38 -58.97 L27.89 -46.03 L29.55 -34.06 L26.08 -24.29 L22.65 -16.16 L0.73 -0.62" stroke="none" stroke-width="0" fill="#ffffff" fill-rule="evenodd"></path><path d="M-0.11 0.9 C-4.43 1, -17.73 1.17, -26.83 -0.6 C-35.94 -2.37, -46.85 -4.84, -54.73 -9.72 C-62.6 -14.6, -69.83 -22.11, -74.11 -29.87 C-78.38 -37.63, -81 -45.21, -80.4 -56.28 C-79.79 -67.35, -80.17 -87.6, -70.48 -96.27 C-60.8 -104.94, -37.1 -112.71, -22.27 -108.3 C-7.44 -103.89, 10.38 -84, 18.52 -69.83 C26.66 -55.67, 29.63 -35.1, 26.59 -23.32 C23.54 -11.54, 4.71 -3.01, 0.23 0.84 M-1.63 0.33 C-5.46 0.67, -15.48 2.02, -24.43 0.59 C-33.38 -0.83, -47.02 -3.24, -55.34 -8.23 C-63.65 -13.21, -70.44 -21.36, -74.31 -29.34 C-78.19 -37.31, -79.44 -45.25, -78.58 -56.05 C-77.72 -66.85, -78.54 -85.72, -69.14 -94.14 C-59.75 -102.56, -37.18 -110.62, -22.2 -106.58 C-7.23 -102.54, 12.31 -84.11, 20.72 -69.9 C29.14 -55.69, 31.56 -33.13, 28.3 -21.34 C25.03 -9.56, 5.85 -2.83, 1.12 0.83" stroke="#000000" stroke-width="2" fill="none"></path></g></g><g stroke-linecap="round"><g transform="translate(381.78550401802386 163.5903580143305) rotate(359.02968387063 15.07742714177734 -4.762911939872936)" fill-rule="evenodd"><path d="M0 0 L0.57 -5.25 L2.71 -8.56 L5.95 -11.4 L15.36 -12.94 L23.27 -12.08 L28.94 -7.6 L30.04 -1.99 L28.9 0.54 L26.36 2.35 L16.28 2.14 L7.62 3.31 L2.09 3.11 L0.09 0.39" stroke="none" stroke-width="0" fill="#ccbdac" fill-rule="evenodd"></path><path d="M0 0 C0.1 -0.87, -0.42 -3.35, 0.57 -5.25 C1.56 -7.15, 3.48 -10.12, 5.95 -11.4 C8.41 -12.69, 12.48 -12.83, 15.36 -12.94 C18.25 -13.05, 21 -12.97, 23.27 -12.08 C25.53 -11.19, 27.81 -9.28, 28.94 -7.6 C30.07 -5.92, 30.47 -3.65, 30.04 -1.99 C29.61 -0.33, 28.65 1.66, 26.36 2.35 C24.07 3.03, 19.41 1.98, 16.28 2.14 C13.16 2.3, 9.99 3.15, 7.62 3.31 C5.26 3.47, 3.35 3.59, 2.09 3.11 C0.84 2.62, 0.42 0.84, 0.09 0.39 M0 0 C0.1 -0.87, -0.42 -3.35, 0.57 -5.25 C1.56 -7.15, 3.48 -10.12, 5.95 -11.4 C8.41 -12.69, 12.48 -12.83, 15.36 -12.94 C18.25 -13.05, 21 -12.97, 23.27 -12.08 C25.53 -11.19, 27.81 -9.28, 28.94 -7.6 C30.07 -5.92, 30.47 -3.65, 30.04 -1.99 C29.61 -0.33, 28.65 1.66, 26.36 2.35 C24.07 3.03, 19.41 1.98, 16.28 2.14 C13.16 2.3, 9.99 3.15, 7.62 3.31 C5.26 3.47, 3.35 3.59, 2.09 3.11 C0.84 2.62, 0.42 0.84, 0.09 0.39" stroke="#000000" stroke-width="2" fill="none"></path></g></g><g stroke-linecap="round"><g transform="translate(397.24349278126806 166.33283789873065) rotate(359.02968387063 -6.413791657418875 -6.671568823559369)" fill-rule="evenodd"><path d="M0 0 L-4.07 -2.25 L-4.21 -5.44 L1.54 -9.22 L-0.47 -11.76 L-3.61 -13.94 L-9.06 -13.09 L-12.25 -10.4 L-13.8 -8.08 L-14.38 -5.02 L-13.9 -1.49 L-11.65 0.2 L-9.13 0.82 L-4.86 -0.11 L0 0" stroke="none" stroke-width="0" fill="#958b7f" fill-rule="evenodd"></path><path d="M0 0 C-0.27 -0.11, -0.96 -0.28, -1.64 -0.66 C-2.32 -1.03, -3.64 -1.46, -4.07 -2.25 C-4.5 -3.05, -4.56 -4.61, -4.21 -5.44 C-3.86 -6.26, -2.91 -6.58, -1.96 -7.21 C-1 -7.84, 1.81 -8.1, 1.54 -9.22 C1.26 -10.34, -1.84 -13.3, -3.61 -13.94 C-5.37 -14.59, -7.61 -13.68, -9.06 -13.09 C-10.5 -12.5, -11.46 -11.24, -12.25 -10.4 C-13.04 -9.57, -13.45 -8.98, -13.8 -8.08 C-14.16 -7.18, -14.37 -6.12, -14.38 -5.02 C-14.4 -3.92, -14.36 -2.36, -13.9 -1.49 C-13.44 -0.62, -12.44 -0.19, -11.65 0.2 C-10.85 0.58, -10.27 0.87, -9.13 0.82 C-8 0.77, -6.38 0.03, -4.86 -0.11 C-3.34 -0.24, -0.81 -0.02, 0 0 M0 0 C-0.27 -0.11, -0.96 -0.28, -1.64 -0.66 C-2.32 -1.03, -3.64 -1.46, -4.07 -2.25 C-4.5 -3.05, -4.56 -4.61, -4.21 -5.44 C-3.86 -6.26, -2.91 -6.58, -1.96 -7.21 C-1 -7.84, 1.81 -8.1, 1.54 -9.22 C1.26 -10.34, -1.84 -13.3, -3.61 -13.94 C-5.37 -14.59, -7.61 -13.68, -9.06 -13.09 C-10.5 -12.5, -11.46 -11.24, -12.25 -10.4 C-13.04 -9.57, -13.45 -8.98, -13.8 -8.08 C-14.16 -7.18, -14.37 -6.12, -14.38 -5.02 C-14.4 -3.92, -14.36 -2.36, -13.9 -1.49 C-13.44 -0.62, -12.44 -0.19, -11.65 0.2 C-10.85 0.58, -10.27 0.87, -9.13 0.82 C-8 0.77, -6.38 0.03, -4.86 -0.11 C-3.34 -0.24, -0.81 -0.02, 0 0" stroke="#958b7f" stroke-width="2" fill="none"></path></g></g><g stroke-linecap="round"><g transform="translate(381.69184316065343 163.6755868433453) rotate(359.02968387063 14.944798795808651 -4.5650809887911805)"><path d="M0 0 C0.03 -0.84, -0.8 -3.23, 0.16 -5.06 C1.12 -6.88, 3.31 -9.65, 5.77 -10.93 C8.24 -12.21, 12.1 -12.59, 14.95 -12.75 C17.8 -12.91, 20.56 -12.65, 22.86 -11.89 C25.15 -11.13, 27.51 -9.7, 28.73 -8.18 C29.95 -6.66, 30.32 -4.51, 30.16 -2.79 C30 -1.07, 28.71 1.18, 27.75 2.15 C26.78 3.12, 26.37 3.02, 24.39 3.03 C22.41 3.04, 18.89 2.11, 15.88 2.21 C12.87 2.31, 8.65 3.56, 6.33 3.65 C4.02 3.74, 3.09 3.42, 2.01 2.75 C0.93 2.07, 0.22 0.13, -0.13 -0.39 M0 0 C0.03 -0.84, -0.8 -3.23, 0.16 -5.06 C1.12 -6.88, 3.31 -9.65, 5.77 -10.93 C8.24 -12.21, 12.1 -12.59, 14.95 -12.75 C17.8 -12.91, 20.56 -12.65, 22.86 -11.89 C25.15 -11.13, 27.51 -9.7, 28.73 -8.18 C29.95 -6.66, 30.32 -4.51, 30.16 -2.79 C30 -1.07, 28.71 1.18, 27.75 2.15 C26.78 3.12, 26.37 3.02, 24.39 3.03 C22.41 3.04, 18.89 2.11, 15.88 2.21 C12.87 2.31, 8.65 3.56, 6.33 3.65 C4.02 3.74, 3.09 3.42, 2.01 2.75 C0.93 2.07, 0.22 0.13, -0.13 -0.39" stroke="#000000" stroke-width="2" fill="none"></path></g></g><g stroke-linecap="round"><g transform="translate(385.5266487806347 149.50529351750822) rotate(359.02968387063 10.613292190451983 -0.054923313911160676)" fill-rule="evenodd"><path d="M0 0 L0.25 -3.18 L3.95 -5.65 L10.52 -6.57 L16.92 -6.4 L21.15 -3.72 L20.38 1.12 L18.15 3.91 L15.07 5.65 L10.97 6.58 L4.89 4.91 L1.16 2.41 L0 0" stroke="none" stroke-width="0" fill="#595755" fill-rule="evenodd"></path><path d="M0 0 C0.04 -0.53, -0.41 -2.23, 0.25 -3.18 C0.9 -4.12, 2.23 -5.09, 3.95 -5.65 C5.66 -6.22, 8.36 -6.44, 10.52 -6.57 C12.69 -6.69, 15.15 -6.87, 16.92 -6.4 C18.69 -5.92, 20.57 -4.97, 21.15 -3.72 C21.72 -2.46, 20.88 -0.15, 20.38 1.12 C19.88 2.39, 19.03 3.15, 18.15 3.91 C17.26 4.66, 16.26 5.2, 15.07 5.65 C13.87 6.09, 12.67 6.7, 10.97 6.58 C9.27 6.46, 6.52 5.61, 4.89 4.91 C3.25 4.22, 1.97 3.23, 1.16 2.41 C0.34 1.59, 0.19 0.4, 0 0 M0 0 C0.04 -0.53, -0.41 -2.23, 0.25 -3.18 C0.9 -4.12, 2.23 -5.09, 3.95 -5.65 C5.66 -6.22, 8.36 -6.44, 10.52 -6.57 C12.69 -6.69, 15.15 -6.87, 16.92 -6.4 C18.69 -5.92, 20.57 -4.97, 21.15 -3.72 C21.72 -2.46, 20.88 -0.15, 20.38 1.12 C19.88 2.39, 19.03 3.15, 18.15 3.91 C17.26 4.66, 16.26 5.2, 15.07 5.65 C13.87 6.09, 12.67 6.7, 10.97 6.58 C9.27 6.46, 6.52 5.61, 4.89 4.91 C3.25 4.22, 1.97 3.23, 1.16 2.41 C0.34 1.59, 0.19 0.4, 0 0" stroke="#000000" stroke-width="2" fill="none"></path></g></g><g stroke-linecap="round"><g transform="translate(401.35337039760225 155.0364141945064) rotate(359.02968387063 -7.798157928637382 -5.630731856450552)" fill-rule="evenodd"><path d="M0 0 L-3.8 0.13 L-6.95 -1.65 L-9.15 -4.19 L-9.39 -7 L-7.48 -9.8 L-3.99 -11.91 L-10.24 -11.31 L-13.72 -10.14 L-15.27 -7.82 L-15.47 -4.84 L-9.89 -0.06 L-6.86 0.71 L0 0" stroke="none" stroke-width="0" fill="#454342" fill-rule="evenodd"></path><path d="M0 0 C-0.63 0.02, -2.64 0.4, -3.8 0.13 C-4.96 -0.15, -6.06 -0.93, -6.95 -1.65 C-7.84 -2.37, -8.75 -3.3, -9.15 -4.19 C-9.56 -5.08, -9.67 -6.07, -9.39 -7 C-9.11 -7.94, -8.38 -8.99, -7.48 -9.8 C-6.58 -10.62, -3.53 -11.66, -3.99 -11.91 C-4.45 -12.16, -8.61 -11.61, -10.24 -11.31 C-11.86 -11.02, -12.88 -10.72, -13.72 -10.14 C-14.56 -9.55, -14.98 -8.7, -15.27 -7.82 C-15.57 -6.93, -15.72 -5.67, -15.47 -4.84 C-15.22 -4.02, -14.36 -3.46, -13.78 -2.86 C-13.2 -2.26, -12.65 -1.71, -12 -1.24 C-11.35 -0.78, -10.74 -0.38, -9.89 -0.06 C-9.03 0.27, -8.51 0.7, -6.86 0.71 C-5.21 0.72, -1.14 0.12, 0 0 M0 0 C-0.63 0.02, -2.64 0.4, -3.8 0.13 C-4.96 -0.15, -6.06 -0.93, -6.95 -1.65 C-7.84 -2.37, -8.75 -3.3, -9.15 -4.19 C-9.56 -5.08, -9.67 -6.07, -9.39 -7 C-9.11 -7.94, -8.38 -8.99, -7.48 -9.8 C-6.58 -10.62, -3.53 -11.66, -3.99 -11.91 C-4.45 -12.16, -8.61 -11.61, -10.24 -11.31 C-11.86 -11.02, -12.88 -10.72, -13.72 -10.14 C-14.56 -9.55, -14.98 -8.7, -15.27 -7.82 C-15.57 -6.93, -15.72 -5.67, -15.47 -4.84 C-15.22 -4.02, -14.36 -3.46, -13.78 -2.86 C-13.2 -2.26, -12.65 -1.71, -12 -1.24 C-11.35 -0.78, -10.74 -0.38, -9.89 -0.06 C-9.03 0.27, -8.51 0.7, -6.86 0.71 C-5.21 0.72, -1.14 0.12, 0 0" stroke="#454342" stroke-width="2" fill="none"></path></g></g><g stroke-linecap="round"><g transform="translate(385.2001858585535 149.4280932633684) rotate(359.02968387063 10.7820272586473 0.20676666365852725)"><path d="M0 0 C0.04 -0.53, -0.4 -2.23, 0.24 -3.18 C0.88 -4.12, 2.16 -5.09, 3.82 -5.65 C5.47 -6.22, 8.69 -6.42, 10.18 -6.57 C11.67 -6.71, 11.87 -6.54, 12.78 -6.54 C13.68 -6.54, 14.57 -6.67, 15.59 -6.57 C16.62 -6.47, 17.94 -6.44, 18.94 -5.93 C19.93 -5.42, 21.19 -4.49, 21.55 -3.51 C21.91 -2.53, 21.38 -1.06, 21.11 -0.03 C20.83 1.01, 20.77 1.74, 19.89 2.71 C19.02 3.69, 17.34 5.09, 15.85 5.81 C14.37 6.53, 12.83 7.14, 10.97 7.02 C9.11 6.91, 6.29 5.92, 4.7 5.13 C3.1 4.34, 2.16 3.14, 1.38 2.28 C0.6 1.43, 0.23 0.38, 0 0 M0 0 C0.04 -0.53, -0.4 -2.23, 0.24 -3.18 C0.88 -4.12, 2.16 -5.09, 3.82 -5.65 C5.47 -6.22, 8.69 -6.42, 10.18 -6.57 C11.67 -6.71, 11.87 -6.54, 12.78 -6.54 C13.68 -6.54, 14.57 -6.67, 15.59 -6.57 C16.62 -6.47, 17.94 -6.44, 18.94 -5.93 C19.93 -5.42, 21.19 -4.49, 21.55 -3.51 C21.91 -2.53, 21.38 -1.06, 21.11 -0.03 C20.83 1.01, 20.77 1.74, 19.89 2.71 C19.02 3.69, 17.34 5.09, 15.85 5.81 C14.37 6.53, 12.83 7.14, 10.97 7.02 C9.11 6.91, 6.29 5.92, 4.7 5.13 C3.1 4.34, 2.16 3.14, 1.38 2.28 C0.6 1.43, 0.23 0.38, 0 0" stroke="#000000" stroke-width="2" fill="none"></path></g></g><g stroke-linecap="round"><g transform="translate(400.5626184037708 146.1950023432663) rotate(359.02968387063 0.9972171867743462 1.8321389232703496)" fill-rule="evenodd"><path d="" stroke="none" stroke-width="0" fill="#454342" fill-rule="evenodd"></path><path d="M0 0 C0.33 0.27, 1.75 1.02, 1.96 1.63 C2.17 2.25, 1.38 3.33, 1.27 3.66 M0 0 C0.33 0.27, 1.75 1.02, 1.96 1.63 C2.17 2.25, 1.38 3.33, 1.27 3.66" stroke="#000000" stroke-width="2" fill="none"></path></g></g><g stroke-linecap="round"><g transform="translate(388.5034871119225 167.59254816686678) rotate(359.9298638803776 0.0684226160975463 3.010595108292023)"><path d="M0 0 C0.02 1, 0.11 5.02, 0.14 6.02 M0 0 C0.02 1, 0.11 5.02, 0.14 6.02" stroke="#000000" stroke-width="2" fill="none"></path></g></g><g stroke-linecap="round"><g transform="translate(388.4302946489248 172.76008160328308) rotate(359.9298638803776 7.246405067773192 -1.1789950531177738)" fill-rule="evenodd"><path d="M0 0 L1.17 3.72 L5.71 4.46 L10.54 4.06 L14.32 2.26 L15.03 -1.97 L14.61 -6.18 L12.02 -6.83 L6.88 -6.46 L-0.06 -5.04 L0 0" stroke="none" stroke-width="0" fill="#ffffff" fill-rule="evenodd"></path><path d="M0 0 C0.19 0.62, 0.22 2.98, 1.17 3.72 C2.12 4.46, 4.15 4.41, 5.71 4.46 C7.27 4.52, 9.11 4.42, 10.54 4.06 C11.98 3.69, 13.58 3.26, 14.32 2.26 C15.07 1.25, 14.98 -0.56, 15.03 -1.97 C15.07 -3.37, 15.11 -5.37, 14.61 -6.18 C14.11 -6.99, 13.3 -6.78, 12.02 -6.83 C10.73 -6.87, 8.89 -6.75, 6.88 -6.46 C4.87 -6.16, 1.08 -6.12, -0.06 -5.04 C-1.21 -3.96, -0.01 -0.84, 0 0 M0 0 C0.19 0.62, 0.22 2.98, 1.17 3.72 C2.12 4.46, 4.15 4.41, 5.71 4.46 C7.27 4.52, 9.11 4.42, 10.54 4.06 C11.98 3.69, 13.58 3.26, 14.32 2.26 C15.07 1.25, 14.98 -0.56, 15.03 -1.97 C15.07 -3.37, 15.11 -5.37, 14.61 -6.18 C14.11 -6.99, 13.3 -6.78, 12.02 -6.83 C10.73 -6.87, 8.89 -6.75, 6.88 -6.46 C4.87 -6.16, 1.08 -6.12, -0.06 -5.04 C-1.21 -3.96, -0.01 -0.84, 0 0" stroke="#000000" stroke-width="2" fill="none"></path></g></g><g stroke-linecap="round"><g transform="translate(395.3684453032872 166.4904118482192) rotate(359.9298638803776 0.05353375826078022 5.13169620731594)"><path d="M0 0 C-0.03 0.77, -0.2 2.89, -0.16 4.6 C-0.11 6.31, 0.2 9.32, 0.27 10.26 M0 0 C-0.03 0.77, -0.2 2.89, -0.16 4.6 C-0.11 6.31, 0.2 9.32, 0.27 10.26" stroke="#000000" stroke-width="2" fill="none"></path></g></g><g stroke-linecap="round" transform="translate(328.85858284520907 64.39080928513829) rotate(0 36.55508575851828 36.91523438668099)"><path d="M24.55 1.85 C31.05 -0.9, 40.72 0.03, 47.62 2.02 C54.52 4.01, 61.69 8.21, 65.94 13.81 C70.18 19.41, 72.99 28.18, 73.09 35.63 C73.19 43.08, 70.47 52.37, 66.53 58.53 C62.59 64.7, 56.11 70.46, 49.46 72.62 C42.82 74.78, 33.47 73.67, 26.66 71.48 C19.85 69.3, 12.89 65.22, 8.62 59.5 C4.34 53.78, 1.33 44.34, 1.01 37.17 C0.69 30, 2.39 22.35, 6.7 16.51 C11.01 10.66, 22.68 4.48, 26.87 2.08 C31.06 -0.32, 31.75 1.61, 31.86 2.08 M32.32 -1.08 C38.81 -1.93, 47.07 2.09, 53.37 5.93 C59.66 9.76, 67.07 15.57, 70.07 21.94 C73.07 28.32, 72.67 37.34, 71.37 44.17 C70.06 51.01, 67.14 58.28, 62.24 62.96 C57.34 67.63, 49.12 70.97, 41.97 72.22 C34.83 73.48, 25.92 73.97, 19.37 70.51 C12.82 67.04, 5.7 58.48, 2.65 51.42 C-0.4 44.37, -0.58 34.88, 1.09 28.16 C2.76 21.44, 7.59 15.85, 12.68 11.11 C17.77 6.37, 28.26 1.43, 31.61 -0.29 C34.96 -2, 32.73 0.27, 32.77 0.81" stroke="none" stroke-width="0" fill="#ffffff"></path><path d="M27.69 0.84 C34.12 -1.49, 43.66 -0.63, 50.2 2.14 C56.74 4.91, 63.16 11.34, 66.94 17.47 C70.71 23.59, 73.24 31.78, 72.86 38.9 C72.48 46.01, 69.09 54.45, 64.64 60.14 C60.2 65.82, 53.27 71.07, 46.18 73.02 C39.09 74.97, 28.85 74.62, 22.11 71.83 C15.37 69.05, 9.34 62.51, 5.73 56.3 C2.13 50.09, 0.08 41.9, 0.48 34.57 C0.89 27.25, 3.19 18.09, 8.18 12.37 C13.17 6.66, 25.8 2.13, 30.4 0.28 C35.01 -1.57, 35.53 0.65, 35.8 1.29 M28.51 -0.58 C35.34 -2.72, 45.31 -0.53, 52.22 2.74 C59.12 6, 66.6 12.48, 69.95 19 C73.31 25.52, 73.4 34.52, 72.33 41.86 C71.27 49.19, 68.47 57.71, 63.59 62.99 C58.71 68.27, 50.21 72.16, 43.05 73.52 C35.89 74.88, 27.18 74.43, 20.63 71.15 C14.09 67.86, 7.37 60.27, 3.79 53.84 C0.21 47.41, -1.72 39.52, -0.86 32.56 C0 25.61, 3.91 17.38, 8.94 12.12 C13.97 6.86, 25.59 2.8, 29.34 0.98 C33.08 -0.83, 31.28 0.72, 31.4 1.24" stroke="#000000" stroke-width="2" fill="none"></path></g><g stroke-linecap="round"><g stroke-opacity="0.1" fill-opacity="0.1" transform="translate(369.38445861125854 137.22867522009244) rotate(0 -18.334895041805446 -35.88692844181031)" fill-rule="evenodd"><path d="M0 0 L-15.39 -9.01 L-22.12 -15.54 L-27.23 -23.3 L-29.64 -32.67 L-29.8 -42.15 L-27.75 -50.25 L-23.68 -57.38 L-17.21 -63.57 L-10.05 -68.37 L1.62 -72.45 L-7.03 -71.71 L-18.63 -69.16 L-25.48 -64.29 L-34.01 -54.3 L-36.28 -49.71 L-38.44 -37.83 L-36.64 -24.14 L-31.24 -12.26 L-27.62 -8.45 L-16.18 -2.08 L-9.27 0.35 L0 0" stroke="none" stroke-width="0" fill="#000000" fill-rule="evenodd"></path><path d="M0 0 C-2.57 -1.5, -10.85 -5.13, -15.39 -9.01 C-19.93 -12.9, -24.83 -17.78, -27.23 -23.3 C-29.63 -28.82, -30.39 -36.47, -29.8 -42.15 C-29.21 -47.83, -26.97 -53.01, -23.68 -57.38 C-20.39 -61.75, -14.26 -65.86, -10.05 -68.37 C-5.83 -70.88, 3.05 -72.32, 1.62 -72.45 C0.19 -72.58, -13.28 -71.45, -18.63 -69.16 C-23.99 -66.87, -27.58 -61.96, -30.52 -58.71 C-33.46 -55.47, -34.96 -53.19, -36.28 -49.71 C-37.6 -46.23, -38.38 -42.09, -38.44 -37.83 C-38.5 -33.56, -37.84 -28.4, -36.64 -24.14 C-35.44 -19.88, -33.52 -15.38, -31.24 -12.26 C-28.96 -9.13, -26.62 -7.51, -22.96 -5.41 C-19.29 -3.31, -13.1 -0.55, -9.27 0.35 C-5.44 1.25, -1.55 0.06, 0 0 M0 0 C-2.57 -1.5, -10.85 -5.13, -15.39 -9.01 C-19.93 -12.9, -24.83 -17.78, -27.23 -23.3 C-29.63 -28.82, -30.39 -36.47, -29.8 -42.15 C-29.21 -47.83, -26.97 -53.01, -23.68 -57.38 C-20.39 -61.75, -14.26 -65.86, -10.05 -68.37 C-5.83 -70.88, 3.05 -72.32, 1.62 -72.45 C0.19 -72.58, -13.28 -71.45, -18.63 -69.16 C-23.99 -66.87, -27.58 -61.96, -30.52 -58.71 C-33.46 -55.47, -34.96 -53.19, -36.28 -49.71 C-37.6 -46.23, -38.38 -42.09, -38.44 -37.83 C-38.5 -33.56, -37.84 -28.4, -36.64 -24.14 C-35.44 -19.88, -33.52 -15.38, -31.24 -12.26 C-28.96 -9.13, -26.62 -7.51, -22.96 -5.41 C-19.29 -3.31, -13.1 -0.55, -9.27 0.35 C-5.44 1.25, -1.55 0.06, 0 0" stroke="#000000" stroke-width="2" fill="none"></path></g></g><g stroke-linecap="round" transform="translate(329.14116724688444 64.10822488346264) rotate(0 36.55508575851828 36.91523438668099)"><path d="M48.81 1.6 C55.29 3.5, 62.11 10.24, 66.13 16.2 C70.15 22.17, 73.03 30.26, 72.94 37.39 C72.85 44.52, 69.8 53.09, 65.58 58.97 C61.36 64.84, 54.64 70.4, 47.62 72.64 C40.61 74.87, 30.35 74.89, 23.5 72.38 C16.66 69.87, 10.39 63.61, 6.54 57.56 C2.69 51.51, 0.29 43.41, 0.4 36.08 C0.52 28.74, 3.05 19.33, 7.24 13.54 C11.43 7.75, 17.75 2.85, 25.54 1.33 C33.32 -0.18, 48.77 3.54, 53.92 4.45 C59.07 5.35, 56.92 6.44, 56.43 6.75 M53.64 3.46 C60.32 6.39, 67.61 13.76, 70.69 20.43 C73.76 27.09, 73.47 36.16, 72.1 43.44 C70.73 50.73, 67.57 59.08, 62.47 64.13 C57.37 69.19, 48.69 72.74, 41.48 73.79 C34.27 74.83, 25.61 73.99, 19.21 70.43 C12.81 66.86, 6.36 58.98, 3.06 52.41 C-0.25 45.83, -1.79 37.88, -0.62 30.97 C0.55 24.07, 4.8 16.02, 10.06 10.98 C15.31 5.93, 23.4 1.86, 30.91 0.72 C38.41 -0.42, 51.43 3.48, 55.1 4.15 C58.76 4.83, 53.49 4.25, 52.91 4.77" stroke="#000000" stroke-width="2" fill="none"></path></g><g stroke-linecap="round" transform="translate(345.37841544805065 101.21153003618986) rotate(0 7.383046877336205 7.0228982491734655)"><path d="M7.01 0.39 C8.56 0.44, 9.92 1.22, 11.26 2.1 C12.61 2.98, 14.67 4.35, 15.05 5.66 C15.44 6.97, 14.38 8.71, 13.6 9.96 C12.83 11.2, 11.6 12.39, 10.4 13.12 C9.19 13.85, 7.71 14.64, 6.36 14.35 C5.02 14.06, 3.52 12.55, 2.32 11.39 C1.12 10.23, -0.82 8.79, -0.85 7.4 C-0.89 6.01, 0.86 4.24, 2.11 3.07 C3.35 1.9, 5.54 0.98, 6.63 0.37 C7.73 -0.24, 8.37 -0.74, 8.68 -0.6 M10.46 0.84 C11.86 1.33, 12.4 3, 12.84 4.17 C13.28 5.35, 13.17 6.39, 13.11 7.88 C13.04 9.38, 13.52 12.32, 12.45 13.17 C11.38 14.02, 8.46 13.05, 6.68 12.99 C4.9 12.93, 3.08 13.53, 1.76 12.81 C0.44 12.09, -0.95 10.21, -1.22 8.68 C-1.49 7.15, -1.27 5.14, 0.15 3.62 C1.57 2.1, 5.64 -0.03, 7.29 -0.44 C8.94 -0.86, 9.71 0.78, 10.06 1.14 C10.42 1.49, 9.1 1.79, 9.41 1.69" stroke="none" stroke-width="0" fill="#000000"></path><path d="M5.9 -0.69 C7.4 -0.92, 10.08 0.03, 11.37 1.01 C12.66 2, 13.29 3.61, 13.64 5.24 C13.99 6.87, 13.93 9.55, 13.48 10.81 C13.03 12.06, 12.1 12.2, 10.93 12.76 C9.76 13.31, 8.03 14.34, 6.45 14.15 C4.88 13.96, 2.46 12.93, 1.47 11.59 C0.47 10.25, 0.49 7.82, 0.47 6.09 C0.45 4.37, 0.1 2.1, 1.37 1.25 C2.65 0.4, 6.64 1.07, 8.13 0.98 C9.62 0.88, 10.32 0.79, 10.33 0.69 M2.83 0.76 C3.75 0.47, 6.54 1.24, 8.24 1.5 C9.95 1.76, 11.95 1.28, 13.07 2.34 C14.19 3.4, 14.9 6.32, 14.97 7.86 C15.04 9.4, 14.56 10.59, 13.5 11.57 C12.44 12.55, 10.14 13.62, 8.59 13.73 C7.04 13.84, 5.72 13.19, 4.22 12.22 C2.71 11.25, 0.08 9.4, -0.46 7.9 C-1 6.4, 0.13 4.49, 0.97 3.23 C1.81 1.96, 4.01 0.44, 4.6 0.29 C5.18 0.14, 4.52 2.23, 4.47 2.35" stroke="#000000" stroke-width="2" fill="none"></path></g><g stroke-linecap="round" transform="translate(353.442231694544 102.42453588744263) rotate(0 1.440594512650966 1.8007431408137222)"><path d="M2.88 1.8 C2.88 1.9, 2.87 2.01, 2.86 2.11 C2.84 2.22, 2.82 2.32, 2.79 2.42 C2.77 2.51, 2.73 2.61, 2.69 2.7 C2.65 2.79, 2.6 2.88, 2.54 2.96 C2.49 3.04, 2.43 3.11, 2.37 3.18 C2.3 3.25, 2.23 3.31, 2.16 3.36 C2.09 3.41, 2.01 3.46, 1.93 3.49 C1.85 3.53, 1.77 3.56, 1.69 3.57 C1.61 3.59, 1.52 3.6, 1.44 3.6 C1.36 3.6, 1.27 3.59, 1.19 3.57 C1.11 3.56, 1.03 3.53, 0.95 3.49 C0.87 3.46, 0.79 3.41, 0.72 3.36 C0.65 3.31, 0.58 3.25, 0.51 3.18 C0.45 3.11, 0.39 3.04, 0.34 2.96 C0.28 2.88, 0.23 2.79, 0.19 2.7 C0.15 2.61, 0.12 2.51, 0.09 2.42 C0.06 2.32, 0.04 2.22, 0.02 2.11 C0.01 2.01, 0 1.9, 0 1.8 C0 1.7, 0.01 1.59, 0.02 1.49 C0.04 1.39, 0.06 1.28, 0.09 1.18 C0.12 1.09, 0.15 0.99, 0.19 0.9 C0.23 0.81, 0.28 0.72, 0.34 0.64 C0.39 0.56, 0.45 0.49, 0.51 0.42 C0.58 0.35, 0.65 0.29, 0.72 0.24 C0.79 0.19, 0.87 0.14, 0.95 0.11 C1.03 0.07, 1.11 0.05, 1.19 0.03 C1.27 0.01, 1.36 0, 1.44 0 C1.52 0, 1.61 0.01, 1.69 0.03 C1.77 0.05, 1.85 0.07, 1.93 0.11 C2.01 0.14, 2.09 0.19, 2.16 0.24 C2.23 0.29, 2.3 0.35, 2.37 0.42 C2.43 0.49, 2.49 0.56, 2.54 0.64 C2.6 0.72, 2.65 0.81, 2.69 0.9 C2.73 0.99, 2.77 1.09, 2.79 1.18 C2.82 1.28, 2.84 1.39, 2.86 1.49 C2.87 1.59, 2.88 1.75, 2.88 1.8 C2.88 1.85, 2.88 1.75, 2.88 1.8" stroke="none" stroke-width="0" fill="#ffffff"></path><path d="M2.88 1.8 C2.88 1.9, 2.87 2.01, 2.86 2.11 C2.84 2.22, 2.82 2.32, 2.79 2.42 C2.77 2.51, 2.73 2.61, 2.69 2.7 C2.65 2.79, 2.6 2.88, 2.54 2.96 C2.49 3.04, 2.43 3.11, 2.37 3.18 C2.3 3.25, 2.23 3.31, 2.16 3.36 C2.09 3.41, 2.01 3.46, 1.93 3.49 C1.85 3.53, 1.77 3.56, 1.69 3.57 C1.61 3.59, 1.52 3.6, 1.44 3.6 C1.36 3.6, 1.27 3.59, 1.19 3.57 C1.11 3.56, 1.03 3.53, 0.95 3.49 C0.87 3.46, 0.79 3.41, 0.72 3.36 C0.65 3.31, 0.58 3.25, 0.51 3.18 C0.45 3.11, 0.39 3.04, 0.34 2.96 C0.28 2.88, 0.23 2.79, 0.19 2.7 C0.15 2.61, 0.12 2.51, 0.09 2.42 C0.06 2.32, 0.04 2.22, 0.02 2.11 C0.01 2.01, 0 1.9, 0 1.8 C0 1.7, 0.01 1.59, 0.02 1.49 C0.04 1.39, 0.06 1.28, 0.09 1.18 C0.12 1.09, 0.15 0.99, 0.19 0.9 C0.23 0.81, 0.28 0.72, 0.34 0.64 C0.39 0.56, 0.45 0.49, 0.51 0.42 C0.58 0.35, 0.65 0.29, 0.72 0.24 C0.79 0.19, 0.87 0.14, 0.95 0.11 C1.03 0.07, 1.11 0.05, 1.19 0.03 C1.27 0.01, 1.36 0, 1.44 0 C1.52 0, 1.61 0.01, 1.69 0.03 C1.77 0.05, 1.85 0.07, 1.93 0.11 C2.01 0.14, 2.09 0.19, 2.16 0.24 C2.23 0.29, 2.3 0.35, 2.37 0.42 C2.43 0.49, 2.49 0.56, 2.54 0.64 C2.6 0.72, 2.65 0.81, 2.69 0.9 C2.73 0.99, 2.77 1.09, 2.79 1.18 C2.82 1.28, 2.84 1.39, 2.86 1.49 C2.87 1.59, 2.88 1.75, 2.88 1.8 C2.88 1.85, 2.88 1.75, 2.88 1.8" stroke="#ffffff" stroke-width="2" fill="none"></path></g><g stroke-linecap="round"><g transform="translate(457.30903915716544 334.82375865033873) rotate(44.56478741533535 7.27597188816074 -1.2293400543442203)" fill-rule="evenodd"><path d="M0 0 L2.84 3.75 L9.53 8.47 L13.21 7.85 L16.14 5.9 L17.38 3.38 L16.87 0.03 L13.57 -4.81 L9.53 -9.14 L6.78 -10.73 L4.4 -10.98 L-0.01 -9.51 L-2.9 -5.71 L0 0" stroke="none" stroke-width="0" fill="#ffffff" fill-rule="evenodd"></path><path d="M0 0 C0.47 0.62, 1.25 2.34, 2.84 3.75 C4.43 5.16, 7.32 8.11, 9.53 8.47 C11.75 8.83, 14.92 7.31, 16.14 5.9 C17.36 4.5, 17.97 2.54, 16.87 0.03 C15.77 -2.48, 11.61 -7.31, 9.53 -9.14 C7.45 -10.98, 5.99 -10.92, 4.4 -10.98 C2.81 -11.04, 1.21 -10.39, -0.01 -9.51 C-1.22 -8.63, -2.9 -7.3, -2.9 -5.71 C-2.9 -4.12, -0.48 -0.95, 0 0 M0 0 C0.47 0.62, 1.25 2.34, 2.84 3.75 C4.43 5.16, 7.32 8.11, 9.53 8.47 C11.75 8.83, 14.92 7.31, 16.14 5.9 C17.36 4.5, 17.97 2.54, 16.87 0.03 C15.77 -2.48, 11.61 -7.31, 9.53 -9.14 C7.45 -10.98, 5.99 -10.92, 4.4 -10.98 C2.81 -11.04, 1.21 -10.39, -0.01 -9.51 C-1.22 -8.63, -2.9 -7.3, -2.9 -5.71 C-2.9 -4.12, -0.48 -0.95, 0 0" stroke="#000000" stroke-width="2" fill="none"></path></g></g><g stroke-linecap="round"><g transform="translate(508.50507633204626 165.38673602280357) rotate(267.16458984358337 5.886916781514671 -0.29541459438542006)" fill-rule="evenodd"><path d="M0 0 L6.39 8.14 L9.31 10.32 L12.6 9.3 L14.79 6.82 L13.78 3.85 L7.55 -5.76 L3.02 -10.81 L0.64 -10.49 L-1.38 -9.22 L-3.01 -6.65 L-2.4 -3.99 L0 0" stroke="none" stroke-width="0" fill="#ffffff" fill-rule="evenodd"></path><path d="M0 0 C0.62 0.82, 2.14 3.18, 3.7 4.9 C5.25 6.62, 7.46 10, 9.31 10.32 C11.16 10.64, 14.42 8.45, 14.79 6.82 C15.17 5.18, 12.78 2.63, 11.57 0.53 C10.36 -1.56, 8.97 -3.87, 7.55 -5.76 C6.12 -7.65, 4.51 -10.23, 3.02 -10.81 C1.54 -11.39, -0.38 -9.91, -1.38 -9.22 C-2.39 -8.53, -2.84 -7.52, -3.01 -6.65 C-3.18 -5.78, -2.9 -5.09, -2.4 -3.99 C-1.89 -2.88, -0.4 -0.66, 0 0 M0 0 C0.62 0.82, 2.14 3.18, 3.7 4.9 C5.25 6.62, 7.46 10, 9.31 10.32 C11.16 10.64, 14.42 8.45, 14.79 6.82 C15.17 5.18, 12.78 2.63, 11.57 0.53 C10.36 -1.56, 8.97 -3.87, 7.55 -5.76 C6.12 -7.65, 4.51 -10.23, 3.02 -10.81 C1.54 -11.39, -0.38 -9.91, -1.38 -9.22 C-2.39 -8.53, -2.84 -7.52, -3.01 -6.65 C-3.18 -5.78, -2.9 -5.09, -2.4 -3.99 C-1.89 -2.88, -0.4 -0.66, 0 0" stroke="#000000" stroke-width="2" fill="none"></path></g></g><g stroke-linecap="round"><g stroke-opacity="0.4" fill-opacity="0.4" transform="translate(429.2950159305262 90.42133691123354) rotate(0 52.801644517041 -10.567861951538532)" fill-rule="evenodd"><path d="M-0.45 1.16 L-11.76 -1.13 L-15.84 -6.86 L-19.83 -13.82 L-21.1 -23.93 L-19.44 -40.55 L-13.83 -47.4 L-6.06 -55.06 L0.92 -63.93 L15.35 -66.21 L20.13 -72.84 L24.03 -75.59 L59.88 -76.24 L76.78 -74.44 L86.46 -68.02 L92.6 -66.03 L100.28 -57.4 L112.68 -51.85 L114.27 -37.46 L127.09 -18.75 L123.18 -7.68 L123.7 3.51 L123.4 11.86 L104.46 33.74 L93.36 39.48 L78.09 40.8 L75.07 53.12 L72.32 55.24 L67.67 48.51 L62.89 36.57 L44.84 19.59 L19.95 18.46 L7.92 17.37 L5.27 11.35 L-0.53 -1.42" stroke="none" stroke-width="0" fill="#fa5252" fill-rule="evenodd"></path><path d="M0.25 0.33 C-1.86 -0.11, -9.57 -1.23, -12.8 -3.65 C-16.04 -6.07, -17.92 -9.61, -19.16 -14.19 C-20.41 -18.77, -20.68 -25.65, -20.27 -31.13 C-19.85 -36.62, -18.08 -43.89, -16.68 -47.12 C-15.28 -50.36, -14.01 -49.36, -11.89 -50.54 C-9.76 -51.72, -5.93 -51.85, -3.94 -54.2 C-1.95 -56.55, -2.83 -62.27, 0.06 -64.64 C2.94 -67.01, 9.57 -66.65, 13.36 -68.43 C17.14 -70.21, 15.13 -74.13, 22.77 -75.32 C30.4 -76.52, 48.56 -76.59, 59.15 -75.59 C69.74 -74.6, 79.8 -72.57, 86.31 -69.35 C92.81 -66.14, 93.89 -59.37, 98.18 -56.3 C102.46 -53.23, 109.34 -53.95, 112.01 -50.93 C114.67 -47.91, 113.04 -41.74, 114.19 -38.16 C115.34 -34.59, 116.95 -32.73, 118.89 -29.48 C120.83 -26.23, 124.97 -22.46, 125.81 -18.66 C126.66 -14.87, 124.43 -10.22, 123.96 -6.71 C123.48 -3.19, 122.9 -1.02, 122.97 2.43 C123.04 5.89, 125.92 10.56, 124.35 14.01 C122.79 17.47, 118.6 18.74, 113.58 23.16 C108.55 27.59, 99.93 37.82, 94.22 40.57 C88.5 43.32, 82.25 37.69, 79.28 39.66 C76.32 41.62, 78.44 50.72, 76.43 52.35 C74.42 53.98, 69.61 51.91, 67.22 49.42 C64.83 46.94, 64.79 41.27, 62.08 37.42 C59.37 33.57, 54.02 29.46, 50.96 26.32 C47.89 23.18, 47.32 20, 43.67 18.57 C40.01 17.14, 34.61 18.42, 29.03 17.75 C23.45 17.08, 14.93 17.47, 10.17 14.54 C5.42 11.62, 2.28 2.75, 0.5 0.18 M-1.07 -0.54 C-3.36 -0.78, -10.84 -0.55, -13.97 -2.71 C-17.1 -4.86, -18.86 -8.38, -19.84 -13.46 C-20.82 -18.53, -20.13 -27.53, -19.85 -33.16 C-19.56 -38.8, -19.64 -44.23, -18.12 -47.29 C-16.59 -50.34, -13.17 -50.21, -10.68 -51.5 C-8.19 -52.79, -4.83 -52.8, -3.17 -55.05 C-1.51 -57.3, -3.74 -62.51, -0.71 -65 C2.32 -67.48, 10.99 -68.23, 15 -69.94 C19 -71.65, 15.98 -74.42, 23.32 -75.28 C30.65 -76.13, 48.23 -76.04, 59.02 -75.08 C69.81 -74.13, 81.51 -72.49, 88.06 -69.54 C94.6 -66.59, 94.46 -60.42, 98.28 -57.36 C102.1 -54.3, 108.31 -54.39, 111 -51.2 C113.68 -48.01, 112.92 -42.04, 114.37 -38.23 C115.82 -34.42, 117.93 -31.7, 119.68 -28.32 C121.44 -24.94, 123.87 -21.64, 124.89 -17.96 C125.92 -14.27, 126.36 -9.61, 125.82 -6.2 C125.27 -2.79, 121.76 -0.6, 121.65 2.5 C121.54 5.6, 126.18 9.15, 125.17 12.4 C124.16 15.66, 120.62 17.48, 115.57 22.01 C110.52 26.55, 100.84 36.79, 94.86 39.63 C88.89 42.46, 83.03 36.49, 79.71 39.01 C76.39 41.54, 77.28 53.04, 74.96 54.76 C72.63 56.47, 67.74 52.2, 65.75 49.28 C63.75 46.37, 65.21 40.65, 62.99 37.27 C60.76 33.88, 55.45 31.81, 52.42 28.95 C49.39 26.08, 48.75 21.78, 44.8 20.07 C40.84 18.37, 34.76 19.35, 28.68 18.72 C22.6 18.08, 13.03 19.65, 8.32 16.26 C3.6 12.88, 1.92 1.04, 0.38 -1.57" stroke="transparent" stroke-width="2" fill="none"></path></g></g><g stroke-linecap="round"><g stroke-opacity="0.4" fill-opacity="0.4" transform="translate(435.1745330421877 43.24030753800275) rotate(0 -13.469568695619808 20.90669909803819)"><path d="M-0.42 -1.13 C-1.53 -2.51, -2.97 -8.03, -6.42 -7.96 C-9.88 -7.89, -17.48 -5.11, -21.16 -0.71 C-24.84 3.7, -28.29 11.62, -28.49 18.47 C-28.7 25.33, -25.97 35.22, -22.36 40.44 C-18.75 45.65, -9.46 48.38, -6.83 49.77 M1.57 0.89 C0.29 -0.41, -3.4 -6.44, -7.28 -7.01 C-11.17 -7.58, -18.26 -6.86, -21.75 -2.52 C-25.24 1.82, -28.44 11.79, -28.21 19.02 C-27.98 26.26, -24.2 35.87, -20.38 40.91 C-16.56 45.94, -7.74 48.14, -5.29 49.22" stroke="#000000" stroke-width="2" fill="none"></path></g></g><g stroke-linecap="round"><g stroke-opacity="0.4" fill-opacity="0.4" transform="translate(423.4556698196146 33.96287415346558) rotate(0 12.827874919375144 -7.036323718750509)"><path d="M0.17 -1.12 C0.94 -2.23, 2.05 -5.48, 4.23 -7.79 C6.41 -10.09, 10.28 -14.79, 13.25 -14.97 C16.23 -15.16, 20.17 -11.04, 22.07 -8.88 C23.97 -6.72, 23.86 -3.5, 24.66 -1.99 C25.46 -0.47, 26.68 -0.12, 26.86 0.21 M-1.2 0.91 C-0.52 -0.42, 1.17 -6.86, 3.46 -9.38 C5.75 -11.9, 9.42 -14.49, 12.53 -14.21 C15.63 -13.93, 20.31 -9.88, 22.11 -7.7 C23.91 -5.51, 22.86 -2.25, 23.32 -1.1 C23.78 0.04, 24.42 -0.78, 24.87 -0.84" stroke="#000000" stroke-width="2" fill="none"></path></g></g><g stroke-linecap="round"><g stroke-opacity="0.4" fill-opacity="0.4" transform="translate(471.3076946451215 15.652150368195066) rotate(0 -14.847178114690117 1.3372885548623117)"><path d="M0.33 1 C-1.48 0.73, -6.89 -2.5, -10.67 -2.77 C-14.45 -3.03, -19.63 -1.48, -22.36 -0.58 C-25.1 0.32, -26.02 1.7, -27.1 2.65 C-28.17 3.6, -28.33 4.72, -28.81 5.1 M-0.96 0.48 C-2.93 0.42, -7.85 -1.84, -11.58 -1.78 C-15.31 -1.73, -20.81 0.42, -23.34 0.82 C-25.86 1.21, -25.61 -0.19, -26.72 0.59 C-27.83 1.36, -29.66 4.95, -30.02 5.47" stroke="#000000" stroke-width="2" fill="none"></path></g></g><g stroke-linecap="round"><g stroke-opacity="0.4" fill-opacity="0.4" transform="translate(502.80213955578677 35.18358907248364) rotate(0 -17.872868512655913 -10.206667817271978)"><path d="M0.07 -1.06 C-1.07 -2.13, -5.34 -3.48, -6.5 -5.46 C-7.65 -7.45, -5.47 -10.42, -6.83 -12.97 C-8.19 -15.53, -10.75 -19.65, -14.65 -20.78 C-18.54 -21.92, -26.68 -21.49, -30.2 -19.78 C-33.73 -18.07, -34.8 -11.76, -35.82 -10.52 M-1.35 1 C-2.71 0.66, -6.63 -1.21, -7.65 -3.84 C-8.67 -6.48, -6.39 -12.18, -7.47 -14.82 C-8.55 -17.46, -10.66 -18.91, -14.14 -19.7 C-17.63 -20.48, -24.95 -20.96, -28.36 -19.52 C-31.78 -18.08, -33.33 -12.56, -34.62 -11.06" stroke="#000000" stroke-width="2" fill="none"></path></g></g><g stroke-linecap="round"><g stroke-opacity="0.4" fill-opacity="0.4" transform="translate(530.3902967255945 41.28716366757385) rotate(0 -16.740199387452762 -12.810037130849025)"><path d="M-0.39 0.15 C-0.73 -0.98, -0.55 -4.97, -1.95 -7.85 C-3.35 -10.73, -4.93 -14.32, -8.79 -17.12 C-12.64 -19.92, -20.7 -23.69, -25.08 -24.66 C-29.46 -25.64, -33.34 -22.95, -35.08 -22.97 M1.6 -0.81 C1.12 -2.17, -0.95 -6.97, -2.77 -9.48 C-4.59 -11.98, -5.56 -13.45, -9.3 -15.82 C-13.03 -18.19, -21.21 -22.04, -25.18 -23.69 C-29.15 -25.35, -31.55 -25.91, -33.11 -25.74" stroke="#000000" stroke-width="2" fill="none"></path></g></g><g stroke-linecap="round"><g stroke-opacity="0.4" fill-opacity="0.4" transform="translate(545.038875753811 54.715027776772104) rotate(0 -7.9939666862712215 -11.068659125397858)"><path d="M0.25 0.94 C0.19 -0.76, 0.72 -6.79, -0.73 -10.04 C-2.19 -13.29, -5.88 -16.73, -8.48 -18.56 C-11.07 -20.39, -14.91 -20.3, -16.28 -21.02 M-1.08 0.39 C-1.22 -1.12, 0 -5.56, -1.42 -8.52 C-2.84 -11.48, -7.12 -14.95, -9.59 -17.37 C-12.06 -19.8, -15.35 -22.15, -16.26 -23.08" stroke="#000000" stroke-width="2" fill="none"></path></g></g><g stroke-linecap="round"><g stroke-opacity="0.4" fill-opacity="0.4" transform="translate(546.7367217257464 85.72862332962347) rotate(0 -1.4775548466673456 -15.548959755505962)"><path d="M0.49 -0.03 C1.19 -0.31, 3.28 -0.34, 4.47 -0.71 C5.67 -1.08, 7.03 -0.54, 7.66 -2.23 C8.28 -3.93, 8.46 -8.34, 8.25 -10.9 C8.04 -13.47, 7.48 -15.05, 6.39 -17.63 C5.3 -20.2, 3.74 -24.21, 1.72 -26.34 C-0.29 -28.48, -3.7 -29.92, -5.7 -30.42 C-7.7 -30.92, -9.49 -29.35, -10.28 -29.35 M-0.71 -1.09 C0.36 -1.27, 5.61 1.19, 6.84 0.69 C8.07 0.2, 6.47 -2.25, 6.67 -4.08 C6.87 -5.91, 7.8 -8.12, 8.03 -10.28 C8.27 -12.43, 8.92 -14.11, 8.09 -17 C7.25 -19.89, 5.25 -25.15, 3.01 -27.62 C0.77 -30.1, -2.95 -31.58, -5.36 -31.84 C-7.77 -32.11, -10.89 -29.2, -11.45 -29.21" stroke="#000000" stroke-width="2" fill="none"></path></g></g><g stroke-linecap="round"><g stroke-opacity="0.4" fill-opacity="0.4" transform="translate(514.7651457621637 92.5571902663313) rotate(0 19.32705101794626 6.093797637140938)"><path d="M-0.66 -0.25 C0.16 -0.09, 3.77 -0.16, 5.44 0.95 C7.12 2.06, 7.35 3.61, 9.38 6.42 C11.41 9.22, 13.88 16.24, 17.61 17.78 C21.34 19.32, 28.34 17.59, 31.74 15.66 C35.14 13.73, 37.02 9.9, 37.99 6.21 C38.97 2.51, 37.69 -4.2, 37.59 -6.5 M1.19 -1.43 C1.78 -1.58, 2.51 -2.12, 4.28 -0.67 C6.05 0.78, 9.64 3.96, 11.82 7.26 C14 10.56, 13.7 17.7, 17.36 19.12 C21.03 20.55, 30.18 18.15, 33.8 15.81 C37.43 13.47, 38.39 8.95, 39.1 5.09 C39.81 1.23, 38.58 -5.18, 38.09 -7.36" stroke="#000000" stroke-width="2" fill="none"></path></g></g><g stroke-linecap="round"><g stroke-opacity="0.4" fill-opacity="0.4" transform="translate(509.1498571346807 80.83832704375811) rotate(0 4.488529026293094 14.155140796920023)"><path d="M-0.42 0.95 C-1.71 1.9, -7.29 1.94, -8.44 5.44 C-9.59 8.94, -9.51 18.36, -7.29 21.93 C-5.07 25.51, 0.96 26.42, 4.89 26.89 C8.81 27.36, 14.32 24.94, 16.26 24.76 M1.57 0.4 C0.7 1.5, -5.11 3.26, -6.19 6.5 C-7.26 9.74, -6.76 16.28, -4.89 19.83 C-3.03 23.37, 1.17 26.88, 5.01 27.75 C8.85 28.63, 16.01 25.49, 18.15 25.08" stroke="#000000" stroke-width="2" fill="none"></path></g></g><g stroke-linecap="round"><g stroke-opacity="0.4" fill-opacity="0.4" transform="translate(476.67884028880087 108.67062719736964) rotate(0 15.312398878946617 0.48504562076976754)"><path d="M-0.87 -0.91 C1.4 -0.67, 7.82 2.49, 13.22 2.4 C18.61 2.31, 28.51 -0.85, 31.5 -1.43 M0.87 1.23 C3.55 1.02, 10.48 0.78, 15.43 0.51 C20.39 0.25, 27.99 -0.25, 30.6 -0.35" stroke="#000000" stroke-width="2" fill="none"></path></g></g><g stroke-linecap="round"><g stroke-opacity="0.4" fill-opacity="0.4" transform="translate(494.74542109026777 72.78160857823912) rotate(0 -32.05006836987089 17.868972763479462)"><path d="M-0.94 0.45 C-1.57 1.7, -3.8 3.18, -4.64 6.62 C-5.47 10.07, -4.4 16.64, -5.95 21.1 C-7.51 25.56, -11.45 31.12, -13.95 33.4 C-16.46 35.67, -15.92 34.35, -20.97 34.75 C-26.03 35.15, -37.52 36.75, -44.28 35.81 C-51.04 34.86, -58.27 32.38, -61.53 29.08 C-64.79 25.78, -64.35 20.02, -63.84 16 C-63.33 11.98, -61.14 6.8, -58.45 4.96 C-55.77 3.12, -51 3.81, -47.73 4.95 C-44.47 6.08, -41.19 8.74, -38.87 11.77 C-36.55 14.8, -36.4 21.18, -33.82 23.13 C-31.23 25.08, -25.76 24.13, -23.37 23.47 C-20.98 22.82, -19.76 20.55, -19.48 19.2 C-19.21 17.85, -21.42 16.19, -21.71 15.36 M0.76 -0.36 C0.03 1.14, -4.41 4.14, -5.71 7.92 C-7.01 11.71, -5.67 18.44, -7.02 22.34 C-8.38 26.24, -11.85 29.21, -13.86 31.33 C-15.86 33.45, -13.64 34.48, -19.03 35.05 C-24.42 35.62, -39.13 35.92, -46.19 34.72 C-53.25 33.53, -58.3 31.09, -61.4 27.88 C-64.51 24.67, -65.07 19.49, -64.8 15.47 C-64.53 11.45, -62.67 5.57, -59.8 3.74 C-56.92 1.92, -51.15 3.57, -47.55 4.53 C-43.94 5.49, -40.31 6.44, -38.19 9.5 C-36.06 12.57, -37.38 20.19, -34.78 22.93 C-32.18 25.67, -25.11 26.67, -22.59 25.94 C-20.07 25.22, -19.81 20.44, -19.65 18.58 C-19.49 16.73, -21.54 15.41, -21.63 14.8" stroke="#000000" stroke-width="2" fill="none"></path></g></g><g stroke-linecap="round"><g stroke-opacity="0.4" fill-opacity="0.4" transform="translate(478.3878411754263 75.46718140007874) rotate(0 4.734500328631562 4.65032089633911)"><path d="M-0.24 -0.46 C1.04 -0.27, 4.82 -0.35, 6.74 1.57 C8.67 3.48, 10.57 9.65, 11.3 11.04 M-1.83 -1.74 C-0.06 -1.4, 7.11 1.21, 9.15 3.03 C11.18 4.85, 10.05 7.86, 10.38 9.19" stroke="#000000" stroke-width="2" fill="none"></path></g></g><g stroke-linecap="round"><g stroke-opacity="0.4" fill-opacity="0.4" transform="translate(443.96368045911754 93.04547623393864) rotate(0 6.434477985709428 1.055257728018148)"><path d="M-0.58 -0.14 C0.55 0.5, 4.22 3.45, 6.55 3.37 C8.89 3.28, 12.12 0, 13.45 -0.65 M1.31 -1.26 C2.29 -0.91, 3.6 1.43, 5.46 1.73 C7.31 2.04, 10.83 0.78, 12.44 0.58" stroke="#000000" stroke-width="2" fill="none"></path></g></g><g stroke-linecap="round"><g stroke-opacity="0.4" fill-opacity="0.4" transform="translate(470.8194086775143 33.23044520205485) rotate(0 -10.483667307368805 15.212066931775155)"><path d="M-0.28 0.93 C-1.73 0.48, -6.28 -2.76, -9.25 -2.85 C-12.23 -2.94, -15.95 -1.78, -18.16 0.41 C-20.36 2.6, -22.67 6.62, -22.47 10.28 C-22.27 13.94, -17.85 18.51, -16.97 22.34 C-16.09 26.18, -16.87 31.5, -17.19 33.28 M1.77 0.37 C0.18 0.12, -7.06 -1.62, -10.45 -1.4 C-13.84 -1.18, -16.54 -0.47, -18.58 1.68 C-20.63 3.84, -22.77 8.05, -22.74 11.53 C-22.7 15.01, -18.98 19.07, -18.37 22.55 C-17.77 26.03, -19.03 30.88, -19.11 32.41" stroke="#000000" stroke-width="2" fill="none"></path></g></g><g stroke-linecap="round"><g stroke-opacity="0.4" fill-opacity="0.4" transform="translate(422.9673838520074 49.83216810070007) rotate(0 15.368524419629367 4.786320491271397)"><path d="M-0.47 -0.17 C0.75 0.85, 4.92 5.42, 6.99 7 C9.06 8.58, 8.67 9.6, 11.96 9.3 C15.25 9.01, 23.53 5.52, 26.73 5.25 C29.94 4.99, 30.75 7.36, 31.2 7.73 M1.49 -1.3 C2.63 -0.17, 4.24 6.48, 6.38 8.49 C8.52 10.5, 10.89 11.15, 14.33 10.76 C17.78 10.38, 24.43 6.58, 27.05 6.17 C29.67 5.76, 29.52 8.24, 30.06 8.28" stroke="#000000" stroke-width="2" fill="none"></path></g></g><g stroke-linecap="round"><g stroke-opacity="0.4" fill-opacity="0.4" transform="translate(431.7565312689373 71.07260769161383) rotate(0 -4.363580877591861 -7.28575022822389)"><path d="M0.64 -0.08 C-0.5 -0.01, -5.78 1.46, -7.33 0.27 C-8.88 -0.91, -9.06 -4.6, -8.67 -7.2 C-8.27 -9.79, -5.31 -13.91, -4.99 -15.3 M-0.48 -1.17 C-1.22 -1.47, -3.65 -0.89, -5.14 -1.71 C-6.62 -2.52, -9.49 -4.01, -9.37 -6.07 C-9.25 -8.12, -5.12 -12.52, -4.41 -14.03" stroke="#000000" stroke-width="2" fill="none"></path></g></g><g stroke-linecap="round"><g stroke-opacity="0.4" fill-opacity="0.4" transform="translate(479.1202701268371 86.69775865504482) rotate(0 15.602495522564261 -12.207916071515228)"><path d="M-0.98 0.27 C-2.29 0.23, -5.23 0.16, -7.2 -0.36 C-9.17 -0.88, -12.07 -0.44, -12.8 -2.85 C-13.53 -5.26, -14.87 -11.48, -11.6 -14.83 C-8.34 -18.17, 1.46 -21.29, 6.79 -22.9 C12.12 -24.51, 15.89 -24.88, 20.38 -24.48 C24.88 -24.07, 30.76 -22.3, 33.76 -20.47 C36.76 -18.65, 37.33 -16.03, 38.38 -13.51 C39.43 -11, 39.05 -6.52, 40.06 -5.39 C41.07 -4.26, 43.8 -6.53, 44.44 -6.74 M0.7 -0.63 C-0.81 -0.5, -5.76 1.11, -8.08 0.99 C-10.41 0.87, -12.59 1.08, -13.23 -1.37 C-13.88 -3.81, -15.09 -10.23, -11.93 -13.69 C-8.78 -17.14, 0.59 -20.16, 5.68 -22.1 C10.76 -24.03, 14.31 -25.89, 18.58 -25.3 C22.85 -24.7, 28.08 -20.36, 31.3 -18.53 C34.51 -16.69, 36.14 -16.24, 37.89 -14.28 C39.64 -12.32, 40.58 -8.47, 41.8 -6.78 C43.02 -5.09, 44.85 -4.23, 45.21 -4.13" stroke="#000000" stroke-width="2" fill="none"></path></g></g><g stroke-linecap="round"><g stroke-opacity="0.4" fill-opacity="0.4" transform="translate(507.684999231859 46.41416632744961) rotate(0 -6.497100973461677 6.551270148510525)"><path d="M0.12 -0.36 C-1.03 0.26, -5.72 2.24, -7.92 3.98 C-10.11 5.72, -12.63 8.29, -13.07 10.08 C-13.5 11.86, -10.99 13.99, -10.55 14.7 M-1.27 -1.6 C-2.44 -1.38, -6.95 -0.14, -8.53 2.03 C-10.11 4.2, -10.52 9.68, -10.75 11.43 C-10.99 13.18, -9.83 11.96, -9.94 12.55" stroke="#000000" stroke-width="2" fill="none"></path></g></g><g stroke-linecap="round"><g stroke-opacity="0.4" fill-opacity="0.4" transform="translate(541.1325880129533 95.97519203958177) rotate(0 -15.789789651050867 -20.556059825562272)"><path d="M0.63 0.32 C-0.71 -0.83, -6.73 -4.65, -7.94 -7.26 C-9.15 -9.87, -7.45 -12.05, -6.64 -15.33 C-5.83 -18.61, -2.75 -23.3, -3.06 -26.92 C-3.36 -30.54, -5.49 -34.67, -8.47 -37.07 C-11.46 -39.48, -16.99 -40.85, -20.95 -41.34 C-24.9 -41.84, -30.41 -40.09, -32.21 -40.06 M-0.5 -0.56 C-1.5 -1.46, -4.72 -2.9, -5.81 -5.69 C-6.9 -8.47, -7.62 -13.95, -7.05 -17.26 C-6.47 -20.58, -1.97 -22.3, -2.36 -25.59 C-2.75 -28.89, -6.01 -34.79, -9.4 -37.05 C-12.78 -39.31, -18.92 -38.43, -22.66 -39.15 C-26.39 -39.88, -30.13 -41.53, -31.81 -41.41" stroke="#000000" stroke-width="2" fill="none"></path></g></g><g stroke-linecap="round"><g stroke-opacity="0.4" fill-opacity="0.4" transform="translate(487.176988592356 35.91601802389448) rotate(0 17.071748441351716 8.419885398873987)"><path d="M-1.1 0.07 C1.06 0.14, 9.19 0.8, 13.62 0.78 C18.06 0.76, 22.07 -1.2, 25.51 -0.07 C28.95 1.07, 32.76 5.04, 34.25 7.6 C35.74 10.16, 35.34 13.31, 34.47 15.3 C33.61 17.28, 29.89 19, 29.07 19.51 M0.52 -0.94 C2.53 -1.23, 8.92 -0.72, 13.04 -0.93 C17.15 -1.14, 22.13 -3.73, 25.19 -2.19 C28.25 -0.64, 30 5.43, 31.39 8.34 C32.78 11.25, 33.73 13.57, 33.54 15.26 C33.35 16.95, 30.79 17.65, 30.24 18.47" stroke="#000000" stroke-width="2" fill="none"></path></g></g><g stroke-linecap="round"><g stroke-opacity="0.4" fill-opacity="0.4" transform="translate(481.561699964873 28.34758552598271) rotate(0 -7.251207008027684 9.352434879809266)"><path d="M0.68 0.78 C1.82 2.27, 5.59 6.28, 5.73 8.97 C5.88 11.65, 4.44 15.62, 1.54 16.88 C-1.36 18.14, -8.04 17.06, -11.67 16.52 C-15.3 15.98, -18.9 14.32, -20.25 13.65 M-0.41 0.15 C0.74 1.26, 4.94 4.12, 5.23 7.07 C5.52 10.02, 4.01 16.14, 1.32 17.83 C-1.37 19.52, -7.62 17.83, -10.89 17.19 C-14.16 16.56, -17.06 14.47, -18.3 14.04" stroke="#000000" stroke-width="2" fill="none"></path></g></g><g stroke-linecap="round"><g stroke-opacity="0.4" fill-opacity="0.4" transform="translate(477.65541222401544 55.691599711986555) rotate(0 -3.082276688378677 -4.835549393832366)"><path d="M0.85 0.42 C-0.15 -0.15, -4.03 -0.9, -5.3 -2.65 C-6.57 -4.4, -6.29 -8.99, -6.79 -10.09 M-0.16 -0.4 C-1.29 -0.9, -4.56 -0.01, -5.7 -1.48 C-6.84 -2.95, -6.58 -8.09, -7.02 -9.21" stroke="#000000" stroke-width="2" fill="none"></path></g></g><g stroke-linecap="round"><g stroke-opacity="0.4" fill-opacity="0.4" transform="translate(442.9871085239031 76.93203930290042) rotate(0 16.892321496728606 -6.434277657574171)"><path d="M1.05 -0.7 C2.22 -2.45, 5.18 -8.01, 7.86 -10.09 C10.54 -12.18, 14.1 -12.5, 17.11 -13.2 C20.11 -13.9, 23.45 -14.71, 25.89 -14.31 C28.32 -13.91, 30.81 -11.36, 31.72 -10.79 M0.14 1.55 C1.16 -0.11, 4.79 -6.75, 7.45 -8.99 C10.11 -11.23, 12.98 -11.09, 16.1 -11.89 C19.21 -12.69, 23.21 -13.96, 26.14 -13.8 C29.06 -13.64, 32.62 -11.76, 33.65 -10.94" stroke="#000000" stroke-width="2" fill="none"></path></g></g><g stroke-linecap="round"><g stroke-opacity="0.4" fill-opacity="0.4" transform="translate(473.0166955317468 108.4264842135658) rotate(0 9.332516770173171 5.863031643306272)"><path d="M1.02 -0.82 C1.79 0.92, 2.71 7.64, 5.63 9.75 C8.56 11.85, 16.49 11.45, 18.56 11.81 M0.1 1.37 C0.58 3.37, 1.49 9.42, 4.44 11.28 C7.39 13.14, 15.53 12.34, 17.8 12.54" stroke="#000000" stroke-width="2" fill="none"></path></g></g><g stroke-linecap="round"><g stroke-opacity="0.4" fill-opacity="0.4" transform="translate(543.5740178509893 111.11205703540554) rotate(0 -28.812303132739203 8.54642774579861)"><path d="M-0.47 -0.02 C-2.19 2.01, -4.95 8.4, -9.27 11.32 C-13.59 14.25, -20.87 17.08, -26.38 17.53 C-31.9 17.97, -37.86 15.97, -42.37 14 C-46.88 12.03, -51 8.09, -53.45 5.71 C-55.91 3.32, -56.34 0.87, -57.12 -0.31 M1.48 -1.07 C-0.48 1.13, -5.4 9.04, -10.22 12.27 C-15.03 15.5, -22.02 17.93, -27.41 18.3 C-32.81 18.68, -38.02 16.64, -42.58 14.5 C-47.14 12.37, -52.03 8.13, -54.79 5.5 C-57.54 2.88, -58.61 -0.42, -59.11 -1.26" stroke="#000000" stroke-width="2" fill="none"></path></g></g><g stroke-linecap="round"><g stroke-opacity="0.4" fill-opacity="0.4" transform="translate(495.233707057875 139.92092912423118) rotate(0 -4.824196743061364 -9.400005944107022)"><path d="M0.01 -1.13 C-0.41 -3.01, -1.34 -8.19, -2.95 -11.28 C-4.56 -14.38, -8.72 -18.29, -9.65 -19.69 M-1.45 0.89 C-2.02 -0.87, -3.2 -6.97, -4.16 -10.28 C-5.12 -13.6, -6.55 -17.49, -7.22 -18.97" stroke="#000000" stroke-width="2" fill="none"></path></g></g><g stroke-linecap="round"><g stroke-opacity="0.4" fill-opacity="0.4" transform="translate(505.4877123776266 140.4092150918383) rotate(0 -0.8582130650631186 -6.877830853700118)"><path d="M-0.5 -1.03 C-0.65 -2.41, -0.46 -7.14, -0.87 -9.44 C-1.27 -11.74, -2.61 -14.13, -2.92 -14.8 M1.43 1.05 C1.66 -0.13, 2.22 -5.98, 1.39 -8.5 C0.56 -11.02, -2.95 -13.45, -3.55 -14.08" stroke="#000000" stroke-width="2" fill="none"></path></g></g><g stroke-linecap="round"><g transform="translate(503.87651221600805 44.87922171409798) rotate(422.26923488609646 -11.448535907319474 -0.9916746496331257)" fill-rule="evenodd"><path d="M0 0 L-15.7 10.51 L-18.15 7.75 L-22.88 -2.47 L-22.49 -6.06 L-20.68 -9.21 L-16.94 -11.67 L-12.42 -12.46 L-7.94 -9.74 L-3.99 -5.87 L0 0" stroke="none" stroke-width="0" fill="#bccfde" fill-rule="evenodd"></path><path d="M0 0 C-2.27 1.51, -10.89 7.38, -13.64 9.06 C-16.39 10.75, -15.45 10.89, -16.48 10.11 C-17.51 9.34, -18.77 6.5, -19.83 4.4 C-20.9 2.31, -22.74 -0.2, -22.88 -2.47 C-23.02 -4.73, -22.42 -7.54, -20.68 -9.21 C-18.94 -10.87, -15.2 -13.02, -12.42 -12.46 C-9.64 -11.9, -6.06 -7.95, -3.99 -5.87 C-1.92 -3.8, -0.67 -0.98, 0 0 M0 0 C-2.27 1.51, -10.89 7.38, -13.64 9.06 C-16.39 10.75, -15.45 10.89, -16.48 10.11 C-17.51 9.34, -18.77 6.5, -19.83 4.4 C-20.9 2.31, -22.74 -0.2, -22.88 -2.47 C-23.02 -4.73, -22.42 -7.54, -20.68 -9.21 C-18.94 -10.87, -15.2 -13.02, -12.42 -12.46 C-9.64 -11.9, -6.06 -7.95, -3.99 -5.87 C-1.92 -3.8, -0.67 -0.98, 0 0" stroke="#bccfde" stroke-width="2" fill="none"></path></g></g><g stroke-linecap="round"><g transform="translate(492.06676669132565 47.792951363097586) rotate(408.7911702453978 -3.127300124050464 -2.779822332489289)"><path d="M0 0 C-0.25 -0.6, -0.46 -2.66, -1.51 -3.59 C-2.55 -4.52, -5.46 -5.23, -6.25 -5.56 M0 0 C-0.25 -0.6, -0.46 -2.66, -1.51 -3.59 C-2.55 -4.52, -5.46 -5.23, -6.25 -5.56" stroke="#000000" stroke-width="2" fill="none"></path></g></g><g stroke-linecap="round"><g transform="translate(492.9624597537567 50.70607689150813) rotate(408.7911702453978 -0.29373749900499035 -5.038265362195602)"><path d="M0 0 C-0.1 -0.71, -0.52 -2.61, -0.58 -4.29 C-0.64 -5.97, -0.39 -9.11, -0.35 -10.08 M0 0 C-0.1 -0.71, -0.52 -2.61, -0.58 -4.29 C-0.64 -5.97, -0.39 -9.11, -0.35 -10.08" stroke="#000000" stroke-width="2" fill="none"></path></g></g><g stroke-linecap="round"><g transform="translate(487.6172834602284 55.69180951741771) rotate(422.26923488609646 4.895910797172142 -11.708853055091822)"><path d="M0 0 C-0.63 -1.02, -2.64 -3.89, -3.76 -6.11 C-4.87 -8.33, -6.57 -10.99, -6.7 -13.31 C-6.82 -15.64, -6.24 -18.39, -4.5 -20.06 C-2.76 -21.72, 0.84 -23.94, 3.77 -23.31 C6.69 -22.68, 10.91 -18.36, 13.03 -16.28 C15.16 -14.19, 15.93 -11.71, 16.5 -10.8 M0 0 C-0.63 -1.02, -2.64 -3.89, -3.76 -6.11 C-4.87 -8.33, -6.57 -10.99, -6.7 -13.31 C-6.82 -15.64, -6.24 -18.39, -4.5 -20.06 C-2.76 -21.72, 0.84 -23.94, 3.77 -23.31 C6.69 -22.68, 10.91 -18.36, 13.03 -16.28 C15.16 -14.19, 15.93 -11.71, 16.5 -10.8" stroke="#000000" stroke-width="2" fill="none"></path></g></g><g stroke-linecap="round" transform="translate(414.51042594030406 61.9229836777331) rotate(0 41.31828353340559 41.72536021846378)"><path d="M42.12 0.53 C49.38 0.03, 58.6 2.78, 64.58 6.91 C70.56 11.03, 75.07 18.35, 78 25.3 C80.94 32.24, 83.25 41.25, 82.19 48.6 C81.14 55.95, 76.49 63.99, 71.69 69.38 C66.88 74.77, 60.19 78.8, 53.36 80.95 C46.53 83.1, 37.75 84.44, 30.7 82.3 C23.66 80.16, 16.09 73.9, 11.09 68.1 C6.09 62.3, 1.91 54.92, 0.69 47.49 C-0.53 40.07, 0.72 30.48, 3.74 23.53 C6.76 16.58, 12.14 9.55, 18.82 5.78 C25.51 2, 38.98 1.58, 43.86 0.87 C48.74 0.17, 48.14 1.02, 48.12 1.57 M54.07 3.39 C61.36 4.96, 71.07 9.95, 75.69 15.84 C80.31 21.73, 81.65 31.03, 81.77 38.75 C81.9 46.48, 79.57 55.76, 76.42 62.19 C73.27 68.61, 69.25 73.74, 62.88 77.3 C56.51 80.87, 45.89 84.07, 38.19 83.56 C30.49 83.06, 22.75 78.71, 16.67 74.3 C10.6 69.88, 4.55 63.83, 1.75 57.09 C-1.05 50.36, -1.7 41.24, -0.12 33.87 C1.46 26.5, 5.6 18.16, 11.23 12.88 C16.85 7.6, 26.2 3.75, 33.65 2.18 C41.1 0.61, 52.55 3.4, 55.91 3.47 C59.26 3.54, 54.05 2.27, 53.79 2.61" stroke="none" stroke-width="0" fill="#ffffff"></path><path d="M36.1 0.18 C43.01 -1.13, 51.72 0.88, 58.34 4.32 C64.95 7.75, 71.71 14.53, 75.79 20.8 C79.88 27.07, 82.76 34.53, 82.87 41.93 C82.97 49.33, 80.62 58.8, 76.45 65.21 C72.27 71.61, 64.69 77.5, 57.81 80.36 C50.93 83.23, 42.62 83.82, 35.16 82.4 C27.7 80.97, 18.69 76.6, 13.06 71.81 C7.43 67.03, 3.15 60.76, 1.37 53.69 C-0.4 46.62, 0.15 36.79, 2.4 29.4 C4.64 22.01, 8.78 14.07, 14.86 9.33 C20.94 4.6, 34.28 2.54, 38.9 1 C43.53 -0.54, 42.43 -0.36, 42.61 0.08 M59.11 4.42 C65.91 6.96, 73.08 13.05, 77.05 19.3 C81.03 25.55, 83.02 34.47, 82.96 41.91 C82.9 49.36, 80.98 57.85, 76.7 63.98 C72.42 70.12, 64.18 75.72, 57.3 78.71 C50.41 81.7, 42.5 82.96, 35.36 81.92 C28.23 80.89, 20.05 77.06, 14.47 72.49 C8.89 67.92, 4.03 61.73, 1.9 54.51 C-0.23 47.28, -0.41 36.64, 1.68 29.15 C3.77 21.66, 8.79 14.52, 14.45 9.55 C20.1 4.58, 28.39 0.18, 35.61 -0.67 C42.82 -1.53, 53.83 3.6, 57.74 4.42 C61.65 5.24, 58.98 3.54, 59.09 4.23" stroke="#000000" stroke-width="2" fill="none"></path></g><g stroke-linecap="round"><g stroke-opacity="0.1" fill-opacity="0.1" transform="translate(473.8763372887963 140.84598888521987) rotate(0 -29.230474935630884 -35.676444882363114)" fill-rule="evenodd"><path d="M0 0 L-7.66 0.91 L-15.35 0.05 L-25.25 -2.4 L-34.55 -6.97 L-45.91 -20.52 L-49 -27.23 L-49.64 -35.34 L-48.51 -44.07 L-45.98 -52.95 L-41.59 -61.28 L-34.28 -68.28 L-26.18 -73.7 L-12.99 -78.32 L-22.78 -77.48 L-35.89 -74.6 L-43.63 -69.1 L-53.2 -57.82 L-55.84 -52.62 L-59.35 -39 L-60.35 -24.61 L-57.7 -14.28 L-52.99 -7.06 L-44.53 0.13 L-31.91 5.4 L-24.46 6.76 L-16.29 6.65 L1.96 0.18" stroke="none" stroke-width="0" fill="#000000" fill-rule="evenodd"></path><path d="M0 0 C-1.28 0.15, -5.1 0.9, -7.66 0.91 C-10.22 0.91, -12.42 0.6, -15.35 0.05 C-18.29 -0.5, -22.05 -1.23, -25.25 -2.4 C-28.45 -3.57, -31.78 -4.89, -34.55 -6.97 C-37.31 -9.06, -39.43 -11.54, -41.84 -14.91 C-44.25 -18.29, -47.89 -22.37, -49 -27.23 C-50.12 -32.09, -49.74 -38.39, -48.51 -44.07 C-47.27 -49.74, -45.31 -56.34, -41.59 -61.28 C-37.87 -66.22, -30.95 -70.87, -26.18 -73.7 C-21.42 -76.54, -11.38 -78.17, -12.99 -78.32 C-14.61 -78.47, -29.83 -77.19, -35.89 -74.6 C-41.94 -72.01, -46 -66.46, -49.32 -62.79 C-52.65 -59.13, -54.16 -56.58, -55.84 -52.62 C-57.51 -48.65, -58.6 -43.67, -59.35 -39 C-60.1 -34.34, -60.63 -28.73, -60.35 -24.61 C-60.08 -20.49, -58.92 -17.21, -57.7 -14.28 C-56.47 -11.36, -55.19 -9.47, -52.99 -7.06 C-50.8 -4.66, -48.04 -1.94, -44.53 0.13 C-41.01 2.21, -36.62 4.31, -31.91 5.4 C-27.21 6.48, -21.94 7.52, -16.29 6.65 C-10.65 5.78, -1.08 1.26, 1.96 0.18 M0 0 C-1.28 0.15, -5.1 0.9, -7.66 0.91 C-10.22 0.91, -12.42 0.6, -15.35 0.05 C-18.29 -0.5, -22.05 -1.23, -25.25 -2.4 C-28.45 -3.57, -31.78 -4.89, -34.55 -6.97 C-37.31 -9.06, -39.43 -11.54, -41.84 -14.91 C-44.25 -18.29, -47.89 -22.37, -49 -27.23 C-50.12 -32.09, -49.74 -38.39, -48.51 -44.07 C-47.27 -49.74, -45.31 -56.34, -41.59 -61.28 C-37.87 -66.22, -30.95 -70.87, -26.18 -73.7 C-21.42 -76.54, -11.38 -78.17, -12.99 -78.32 C-14.61 -78.47, -29.83 -77.19, -35.89 -74.6 C-41.94 -72.01, -46 -66.46, -49.32 -62.79 C-52.65 -59.13, -54.16 -56.58, -55.84 -52.62 C-57.51 -48.65, -58.6 -43.67, -59.35 -39 C-60.1 -34.34, -60.63 -28.73, -60.35 -24.61 C-60.08 -20.49, -58.92 -17.21, -57.7 -14.28 C-56.47 -11.36, -55.19 -9.47, -52.99 -7.06 C-50.8 -4.66, -48.04 -1.94, -44.53 0.13 C-41.01 2.21, -36.62 4.31, -31.91 5.4 C-27.21 6.48, -21.94 7.52, -16.29 6.65 C-10.65 5.78, -1.08 1.26, 1.96 0.18" stroke="#000000" stroke-width="2" fill="none"></path></g></g><g stroke-linecap="round" transform="translate(415.00384989822516 61.40092887732226) rotate(0 41.31828353340559 41.72536021846378)"><path d="M25.66 3.01 C31.96 0.09, 41.54 0.47, 49.01 1.86 C56.47 3.26, 64.91 6.23, 70.47 11.38 C76.03 16.52, 80.76 25.25, 82.38 32.73 C84 40.22, 82.77 49.35, 80.19 56.28 C77.6 63.22, 72.9 70.01, 66.87 74.35 C60.85 78.7, 51.56 81.51, 44.05 82.36 C36.53 83.22, 28.17 82.84, 21.79 79.48 C15.41 76.13, 9.38 69.02, 5.77 62.24 C2.15 55.46, -0.1 46.17, 0.11 38.8 C0.32 31.44, 2.43 24.31, 7.05 18.04 C11.67 11.77, 23.8 3.93, 27.82 1.19 C31.83 -1.55, 30.63 0.83, 31.13 1.6 M35.53 0.27 C42.44 -1.56, 51.38 0.29, 58.22 3.24 C65.07 6.18, 72.66 11.83, 76.6 17.94 C80.54 24.05, 81.82 32.46, 81.86 39.92 C81.89 47.38, 80.5 56.19, 76.8 62.7 C73.09 69.2, 66.34 75.29, 59.61 78.94 C52.89 82.58, 43.92 85.52, 36.43 84.58 C28.93 83.64, 20.41 78.43, 14.63 73.3 C8.84 68.16, 3.94 61.05, 1.7 53.76 C-0.53 46.47, -0.6 36.67, 1.22 29.56 C3.04 22.45, 6.94 16, 12.62 11.08 C18.31 6.16, 31.42 1.52, 35.35 0.04 C39.28 -1.45, 36.07 1.53, 36.21 2.17" stroke="#000000" stroke-width="2" fill="none"></path></g><g stroke-linecap="round" transform="translate(433.9072625301818 100.35230080623137) rotate(0 8.345072043692756 7.937995358634566)"><path d="M7.49 -0.38 C9.01 -0.86, 11.2 -0.12, 12.61 0.98 C14.02 2.07, 15.29 4.39, 15.97 6.18 C16.65 7.97, 17.22 10.41, 16.68 11.72 C16.14 13.02, 14.23 13.32, 12.74 13.99 C11.25 14.65, 9.39 16.03, 7.74 15.71 C6.1 15.39, 4.1 13.32, 2.87 12.07 C1.64 10.82, 0.64 9.58, 0.37 8.19 C0.1 6.8, -0.24 4.93, 1.23 3.73 C2.7 2.53, 7.84 1.48, 9.18 0.97 C10.53 0.45, 9.41 0.66, 9.28 0.64 M3.41 1.91 C4.95 1.38, 8.78 0.31, 10.56 0.5 C12.34 0.69, 12.9 1.96, 14.09 3.08 C15.28 4.2, 17.45 5.75, 17.72 7.25 C17.99 8.74, 16.98 10.38, 15.72 12.06 C14.45 13.74, 12.22 17.04, 10.12 17.33 C8.01 17.62, 4.66 15.22, 3.09 13.8 C1.51 12.38, 0.94 10.09, 0.67 8.82 C0.4 7.55, 0.96 7.61, 1.48 6.19 C2 4.77, 3.21 1.19, 3.79 0.3 C4.37 -0.6, 4.9 0.76, 4.94 0.8" stroke="none" stroke-width="0" fill="#000000"></path><path d="M8.26 -0.67 C10.15 -0.66, 13.18 0.62, 14.47 1.91 C15.75 3.19, 15.7 5.42, 15.96 7.05 C16.22 8.67, 16.7 10.21, 16.02 11.66 C15.34 13.11, 13.66 15.22, 11.87 15.75 C10.08 16.28, 7.19 15.46, 5.27 14.85 C3.35 14.24, 1.04 13.31, 0.33 12.06 C-0.38 10.82, 0.58 9.02, 1.01 7.36 C1.44 5.69, 1.71 3.47, 2.89 2.08 C4.08 0.7, 6.95 -0.47, 8.11 -0.94 C9.28 -1.4, 9.97 -0.97, 9.9 -0.69 M5.62 0.51 C7.08 0.13, 10.57 0.72, 12.24 1.44 C13.9 2.16, 14.96 3.27, 15.61 4.83 C16.26 6.38, 16.68 9.31, 16.16 10.77 C15.65 12.24, 14.13 12.7, 12.53 13.61 C10.93 14.52, 8.4 16.14, 6.56 16.23 C4.72 16.32, 2.64 15.36, 1.48 14.16 C0.31 12.97, -0.67 10.88, -0.43 9.07 C-0.19 7.27, 1.9 4.82, 2.92 3.34 C3.94 1.85, 5.23 0.67, 5.71 0.14 C6.19 -0.39, 5.87 0.21, 5.8 0.17" stroke="#000000" stroke-width="2" fill="none"></path></g><g stroke-linecap="round" transform="translate(443.02180949732383 102.03205632654772) rotate(0 1.6283067402327305 2.0353834252908882)"><path d="M3.26 2.04 C3.26 2.15, 3.25 2.27, 3.23 2.39 C3.22 2.5, 3.19 2.62, 3.16 2.73 C3.13 2.84, 3.09 2.95, 3.04 3.05 C2.99 3.16, 2.94 3.25, 2.88 3.34 C2.82 3.43, 2.75 3.52, 2.67 3.59 C2.6 3.67, 2.52 3.74, 2.44 3.8 C2.36 3.86, 2.27 3.91, 2.19 3.95 C2.1 3.99, 2 4.02, 1.91 4.04 C1.82 4.06, 1.72 4.07, 1.63 4.07 C1.53 4.07, 1.44 4.06, 1.35 4.04 C1.25 4.02, 1.16 3.99, 1.07 3.95 C0.98 3.91, 0.9 3.86, 0.81 3.8 C0.73 3.74, 0.65 3.67, 0.58 3.59 C0.51 3.52, 0.44 3.43, 0.38 3.34 C0.32 3.25, 0.27 3.16, 0.22 3.05 C0.17 2.95, 0.13 2.84, 0.1 2.73 C0.07 2.62, 0.04 2.5, 0.02 2.39 C0.01 2.27, 0 2.15, 0 2.04 C0 1.92, 0.01 1.8, 0.02 1.68 C0.04 1.57, 0.07 1.45, 0.1 1.34 C0.13 1.23, 0.17 1.12, 0.22 1.02 C0.27 0.92, 0.32 0.82, 0.38 0.73 C0.44 0.64, 0.51 0.55, 0.58 0.48 C0.65 0.4, 0.73 0.33, 0.81 0.27 C0.9 0.21, 0.98 0.16, 1.07 0.12 C1.16 0.08, 1.25 0.05, 1.35 0.03 C1.44 0.01, 1.53 0, 1.63 0 C1.72 0, 1.82 0.01, 1.91 0.03 C2 0.05, 2.1 0.08, 2.19 0.12 C2.27 0.16, 2.36 0.21, 2.44 0.27 C2.52 0.33, 2.6 0.4, 2.67 0.48 C2.75 0.55, 2.82 0.64, 2.88 0.73 C2.94 0.82, 2.99 0.92, 3.04 1.02 C3.09 1.12, 3.13 1.23, 3.16 1.34 C3.19 1.45, 3.22 1.57, 3.23 1.68 C3.25 1.8, 3.25 1.98, 3.26 2.04 C3.26 2.09, 3.26 1.98, 3.26 2.04" stroke="none" stroke-width="0" fill="#ffffff"></path><path d="M3.26 2.04 C3.26 2.15, 3.25 2.27, 3.23 2.39 C3.22 2.5, 3.19 2.62, 3.16 2.73 C3.13 2.84, 3.09 2.95, 3.04 3.05 C2.99 3.16, 2.94 3.25, 2.88 3.34 C2.82 3.43, 2.75 3.52, 2.67 3.59 C2.6 3.67, 2.52 3.74, 2.44 3.8 C2.36 3.86, 2.27 3.91, 2.19 3.95 C2.1 3.99, 2 4.02, 1.91 4.04 C1.82 4.06, 1.72 4.07, 1.63 4.07 C1.53 4.07, 1.44 4.06, 1.35 4.04 C1.25 4.02, 1.16 3.99, 1.07 3.95 C0.98 3.91, 0.9 3.86, 0.81 3.8 C0.73 3.74, 0.65 3.67, 0.58 3.59 C0.51 3.52, 0.44 3.43, 0.38 3.34 C0.32 3.25, 0.27 3.16, 0.22 3.05 C0.17 2.95, 0.13 2.84, 0.1 2.73 C0.07 2.62, 0.04 2.5, 0.02 2.39 C0.01 2.27, 0 2.15, 0 2.04 C0 1.92, 0.01 1.8, 0.02 1.68 C0.04 1.57, 0.07 1.45, 0.1 1.34 C0.13 1.23, 0.17 1.12, 0.22 1.02 C0.27 0.92, 0.32 0.82, 0.38 0.73 C0.44 0.64, 0.51 0.55, 0.58 0.48 C0.65 0.4, 0.73 0.33, 0.81 0.27 C0.9 0.21, 0.98 0.16, 1.07 0.12 C1.16 0.08, 1.25 0.05, 1.35 0.03 C1.44 0.01, 1.53 0, 1.63 0 C1.72 0, 1.82 0.01, 1.91 0.03 C2 0.05, 2.1 0.08, 2.19 0.12 C2.27 0.16, 2.36 0.21, 2.44 0.27 C2.52 0.33, 2.6 0.4, 2.67 0.48 C2.75 0.55, 2.82 0.64, 2.88 0.73 C2.94 0.82, 2.99 0.92, 3.04 1.02 C3.09 1.12, 3.13 1.23, 3.16 1.34 C3.19 1.45, 3.22 1.57, 3.23 1.68 C3.25 1.8, 3.25 1.98, 3.26 2.04 C3.26 2.09, 3.26 1.98, 3.26 2.04" stroke="#ffffff" stroke-width="2" fill="none"></path></g><g stroke-opacity="0.7" fill-opacity="0.7" transform="translate(165.9141058453807 156.1971377288421) rotate(28.60874501054092 43 16.5)"><text x="0" y="23" font-family="Helvetica, Segoe UI Emoji" font-size="28px" fill="#1864ab" text-anchor="start" style="white-space: pre;" direction="ltr">cute74</text></g><g stroke-opacity="0.7" fill-opacity="0.7" transform="translate(106.4450153977449 217.3335858525801) rotate(11.251116874460022 51.5 16.500000000000057)"><text x="0" y="23" font-family="Helvetica, Segoe UI Emoji" font-size="28px" fill="#1864ab" text-anchor="start" style="white-space: pre;" direction="ltr">arco888</text></g><g stroke-opacity="0.7" fill-opacity="0.7" transform="translate(101.4429423694391 95.44497176442485) rotate(351.7081153185128 40 16.5)"><text x="0" y="23" font-family="Helvetica, Segoe UI Emoji" font-size="28px" fill="#1864ab" text-anchor="start" style="white-space: pre;" direction="ltr">gop19</text></g><g stroke-opacity="0.7" fill-opacity="0.7" transform="translate(11.914371767236446 164.2692360703004) rotate(351.7081153185128 44.5 16.5)"><text x="0" y="23" font-family="Helvetica, Segoe UI Emoji" font-size="28px" fill="#1864ab" text-anchor="start" style="white-space: pre;" direction="ltr">boro32</text></g></svg>